<?xml version="1.0" encoding="UTF-8"?>
<svg width="14px" height="14px" viewBox="0 0 14 14" version="1.1" xmlns="http://www.w3.org/2000/svg" xmlns:xlink="http://www.w3.org/1999/xlink">
    <!-- Generator: Sketch 51.3 (57544) - http://www.bohemiancoding.com/sketch -->
    <title>icon/dark/airbag</title>
    <desc>Created with Sketch.</desc>
    <defs></defs>
    <g id="Ericsson-Design-System-v1.4" stroke="none" stroke-width="1" fill-rule="evenodd">
        <g id="Dark-theme" transform="translate(-906.000000, -320.000000)">
            <g id="icon/dark/airbag" transform="translate(905.000000, 319.000000)">
                <g id="icon/light/airbag" transform="translate(1.000000, 0.000000)">
                    <path d="M10.1855,10.7202 L9.2775,10.3012 L10.8095,7.2532 C10.9345,7.0082 11.2375,6.9112 11.4815,7.0302 C11.6015,7.0912 11.6895,7.1932 11.7315,7.3202 C11.7735,7.4472 11.7635,7.5832 11.7045,7.7022 L10.1855,10.7202 Z M9.3045,12.4702 L4.7765,10.5392 L2.2445,13.7852 C2.0805,13.9952 1.7555,14.0362 1.5415,13.8712 C1.4365,13.7892 1.3705,13.6722 1.3535,13.5392 C1.3365,13.4062 1.3735,13.2752 1.4555,13.1702 L4.4605,9.3162 L8.4005,10.9972 L9.7355,11.6142 L9.3045,12.4702 Z M12.5975,8.1512 C12.7775,7.7942 12.8075,7.3872 12.6815,7.0072 C12.5555,6.6262 12.2895,6.3172 11.9305,6.1372 C11.1915,5.7682 10.2895,6.0642 9.9165,6.8032 L8.3625,9.8932 L4.1455,8.0952 L0.6665,12.5542 C0.4205,12.8712 0.3125,13.2632 0.3615,13.6612 C0.4105,14.0592 0.6115,14.4142 0.9275,14.6602 C1.1945,14.8682 1.5125,14.9772 1.8495,14.9772 C2.3155,14.9772 2.7465,14.7672 3.0325,14.4002 L5.0915,11.7602 L9.7765,13.7592 L10.6445,12.0342 L12.6505,12.9652 L13.0695,12.0562 L11.0935,11.1402 L12.5975,8.1512 Z" id="Fill-1"></path>
                    <path d="M5.501,1.9771 C6.754,1.9771 7.773,2.9971 7.773,4.2491 C7.773,5.5031 6.754,6.5221 5.501,6.5221 C4.248,6.5221 3.229,5.5031 3.229,4.2491 C3.229,2.9971 4.248,1.9771 5.501,1.9771 M5.501,7.4991 C7.296,7.4991 8.751,6.0441 8.751,4.2491 C8.751,2.4551 7.296,0.9991 5.501,0.9991 C3.706,0.9991 2.251,2.4551 2.251,4.2491 C2.251,6.0441 3.706,7.4991 5.501,7.4991" id="Fill-3"></path>
                    <path d="M11.9834,4.5591 C11.4164,4.5591 10.9544,4.0971 10.9544,3.5301 C10.9544,2.9621 11.4164,2.5001 11.9834,2.5001 C12.5504,2.5001 13.0114,2.9621 13.0114,3.5301 C13.0114,4.0971 12.5504,4.5591 11.9834,4.5591 M11.9834,1.5001 C10.8644,1.5001 9.9544,2.4111 9.9544,3.5301 C9.9544,4.6491 10.8644,5.5591 11.9834,5.5591 C13.1014,5.5591 14.0114,4.6491 14.0114,3.5301 C14.0114,2.4111 13.1014,1.5001 11.9834,1.5001" id="Fill-5"></path>
                </g>
            </g>
        </g>
    </g>
</svg>
