<?xml version="1.0" encoding="UTF-8"?>
<svg width="14px" height="15px" viewBox="0 0 14 15" version="1.1" xmlns="http://www.w3.org/2000/svg" xmlns:xlink="http://www.w3.org/1999/xlink">
    <!-- Generator: Sketch 51.3 (57544) - http://www.bohemiancoding.com/sketch -->
    <title>icon/dark/avatar</title>
    <desc>Created with Sketch.</desc>
    <defs></defs>
    <g id="Ericsson-Design-System-v1.4" stroke="none" stroke-width="1" fill-rule="evenodd">
        <g id="Dark-theme" transform="translate(-938.000000, -192.000000)">
            <g id="icon/dark/avatar" transform="translate(937.000000, 191.000000)">
                <path d="M7.74,1.0004 L8.26,1.0004 C10.322,1.0004 12,2.6774 12,4.7404 L12,7.2594 C12,9.3214 10.322,11.0004 8.26,11.0004 L7.74,11.0004 C5.678,11.0004 4,9.3214 4,7.2594 L4,4.7404 C4,2.6774 5.678,1.0004 7.74,1.0004 Z M11,4.7404 C11,3.2294 9.771,2.0004 8.26,2.0004 L7.74,2.0004 C6.229,2.0004 5,3.2294 5,4.7404 L5,7.2594 C5,8.7704 6.229,10.0004 7.74,10.0004 L8.26,10.0004 C9.771,10.0004 11,8.7704 11,7.2594 L11,4.7404 Z M1,16.0002 C1,13.7942 2.794,12.0002 5,12.0002 L11,12.0002 C13.206,12.0002 15,13.7942 15,16.0002 L14.5,16.0002 L14,16.0002 L2,16.0002 L1.5,16.0002 L1,16.0002 Z M5,13.0002 C3.698,13.0002 2.599,13.8382 2.184,15.0002 L13.816,15.0002 C13.401,13.8382 12.302,13.0002 11,13.0002 L5,13.0002 Z" id="Shape"></path>
            </g>
        </g>
    </g>
</svg>