<?xml version="1.0" encoding="UTF-8"?>
<svg width="16px" height="10px" viewBox="0 0 16 10" version="1.1" xmlns="http://www.w3.org/2000/svg" xmlns:xlink="http://www.w3.org/1999/xlink">
    <!-- Generator: Sketch 51.3 (57544) - http://www.bohemiancoding.com/sketch -->
    <title>icon/dark/battery_charging</title>
    <desc>Created with Sketch.</desc>
    <defs></defs>
    <g id="Ericsson-Design-System-v1.4" stroke="none" stroke-width="1" fill-rule="evenodd">
        <g id="Dark-theme" transform="translate(-1225.000000, -258.000000)">
            <g id="icon/dark/battery_charging" transform="translate(1225.000000, 255.000000)">
                <path d="M0,3.5 L14,3.5 L14,5.5 L16,5.5 L16,10.50227 L14,10.50227 L14,12.5 L0,12.5 L0,3.5 Z M1,4.5 L1,11.5 L13,11.5 L13,4.5 L1,4.5 Z M14,9.5 L14,6.5 L15,6.5 L15,9.5 L14,9.5 Z M6,9.61487 L3.661,7.45887 L4.339,6.72387 L6,8.25587 L8,6.41187 L10.339,8.56787 L9.661,9.30287 L8,7.77087 L6,9.61487 Z" id="Shape"></path>
            </g>
        </g>
    </g>
</svg>