<?xml version="1.0" encoding="UTF-8"?>
<svg width="15px" height="14px" viewBox="0 0 15 14" version="1.1" xmlns="http://www.w3.org/2000/svg" xmlns:xlink="http://www.w3.org/1999/xlink">
    <!-- Generator: Sketch 51.3 (57544) - http://www.bohemiancoding.com/sketch -->
    <title>icon/dark/blog</title>
    <desc>Created with Sketch.</desc>
    <defs></defs>
    <g id="Ericsson-Design-System-v1.4" stroke="none" stroke-width="1" fill-rule="evenodd">
        <g id="Dark-theme" transform="translate(-778.000000, -256.000000)">
            <g id="icon/dark/blog" transform="translate(777.000000, 255.000000)">
                <path d="M2.0449,1.0005 L15.0709,1.0005 L15.0709,14.9995 L2.0449,14.9995 L2.0449,12.1015 L0.9999,12.1015 L0.9999,11.1005 L2.0449,11.1005 L2.0449,8.6205 L0.9999,8.6205 L0.9999,7.6205 L2.0449,7.6205 L2.0449,5.0365 L0.9999,5.0365 L0.9999,4.0365 L2.0449,4.0365 L2.0449,1.0005 Z M3.0449,2.0005 L3.0449,4.0365 L4.0449,4.0365 L4.0449,5.0365 L3.0449,5.0365 L3.0449,7.6205 L4.0449,7.6205 L4.0449,8.6205 L3.0449,8.6205 L3.0449,11.1005 L4.0449,11.1005 L4.0449,12.1015 L3.0449,12.1015 L3.0449,14.0005 L14.0719,14.0005 L14.0719,2.0005 L3.0449,2.0005 Z M10.5139,7.8472 C10.9509,8.1562 11.1959,8.6432 11.1959,9.2272 C11.1959,10.2982 10.4269,11.0462 9.3259,11.0462 L6.9319,11.0462 L6.9319,4.9532 L9.2559,4.9532 C10.3179,4.9532 11.0319,5.6412 11.0319,6.6662 C11.0319,7.1462 10.8469,7.5612 10.5139,7.8472 Z M7.9799,9.9952 L9.3109,9.9952 C9.8349,9.9952 10.1479,9.7022 10.1479,9.2112 C10.1479,8.7202 9.8349,8.4272 9.3109,8.4272 L7.9799,8.4272 L7.9799,9.9952 Z M7.9799,6.0052 L7.9799,7.3772 L9.2399,7.3772 C9.7109,7.3772 9.9919,7.1202 9.9919,6.6902 C9.9919,6.2612 9.7109,6.0052 9.2399,6.0052 L7.9799,6.0052 Z" id="Shape"></path>
            </g>
        </g>
    </g>
</svg>