<?xml version="1.0" encoding="UTF-8"?>
<svg width="14px" height="12px" viewBox="0 0 14 12" version="1.1" xmlns="http://www.w3.org/2000/svg" xmlns:xlink="http://www.w3.org/1999/xlink">
    <!-- Generator: Sketch 51.3 (57544) - http://www.bohemiancoding.com/sketch -->
    <title>icon/dark/bug</title>
    <desc>Created with Sketch.</desc>
    <defs></defs>
    <g id="Ericsson-Design-System-v1.4" stroke="none" stroke-width="1" fill-rule="evenodd">
        <g id="Dark-theme" transform="translate(-1130.000000, -257.000000)">
            <g id="icon/dark/bug" transform="translate(1129.000000, 255.000000)">
                <path d="M4.5,7.91100005 C4.5,7.40600005 4.575,6.92800005 4.685,6.47200005 L11.315,6.47200005 C11.425,6.92800005 11.5,7.40600005 11.5,7.91100005 C11.5,10.509 9.93,12.622 8,12.622 C6.07,12.622 4.5,10.509 4.5,7.91100005 Z M10.979,5.47200005 L5.021,5.47200005 C5.636,4.11500005 6.736,3.20000005 8,3.20000005 C9.264,3.20000005 10.364,4.11500005 10.979,5.47200005 Z M15,8.41100005 L15,7.41100005 L12.48,7.41100005 C12.452,6.99800005 12.391,6.59700005 12.297,6.21400005 L14.307,4.20400005 L13.6,3.49700005 L11.94,5.15700005 C11.173,3.39600005 9.695,2.20000005 8,2.20000005 C6.346,2.20000005 4.902,3.34100005 4.12,5.03200005 L2.584,3.49700005 L1.877,4.20400005 L3.744,6.07000005 C3.629,6.49700005 3.552,6.94500005 3.52,7.41100005 L1,7.41100005 L1,8.41100005 L3.52,8.41100005 C3.552,8.87700005 3.629,9.32400005 3.744,9.75200005 L1.877,11.618 L2.584,12.325 L4.12,10.79 C4.902,12.481 6.346,13.622 8,13.622 C9.695,13.622 11.173,12.426 11.94,10.665 L13.6,12.325 L14.307,11.618 L12.297,9.60800005 C12.391,9.22500005 12.452,8.82400005 12.48,8.41100005 L15,8.41100005 Z" id="Shape"></path>
            </g>
        </g>
    </g>
</svg>