<?xml version="1.0" encoding="UTF-8"?>
<svg width="16px" height="14px" viewBox="0 0 16 14" version="1.1" xmlns="http://www.w3.org/2000/svg" xmlns:xlink="http://www.w3.org/1999/xlink">
    <!-- Generator: Sketch 51.3 (57544) - http://www.bohemiancoding.com/sketch -->
    <title>icon/dark/calendar</title>
    <desc>Created with Sketch.</desc>
    <defs></defs>
    <g id="Ericsson-Design-System-v1.4" stroke="none" stroke-width="1" fill-rule="evenodd">
        <g id="Dark-theme" transform="translate(-1289.000000, -224.000000)">
            <g id="icon/dark/calendar" transform="translate(1289.000000, 223.000000)">
                <path d="M12,1.0005 L13,1.0005 L13,2 L16,2 L16,15 L2.36658272e-30,15 L2.36658272e-30,2 L3,2 L3,1 L4,1 L4,2 L12,2 L12,1.0005 Z M13,4 L12,4 L12,3 L4,3 L4,4 L3,4 L3,3 L1,3 L1,5 L15,5 L15,3 L13,3 L13,4 Z M1,14 L15,14 L15,6 L1,6 L1,14 Z M3.006,9.072 L3.006,8.072 L5.007,8.072 L5.007,9.072 L3.006,9.072 Z M7.007,9.072 L7.007,8.072 L9.007,8.072 L9.007,9.072 L7.007,9.072 Z M11.006,9.072 L11.006,8.072 L13.006,8.072 L13.006,9.072 L11.006,9.072 Z M3.006,12.071 L3.006,11.071 L5.007,11.071 L5.007,12.071 L3.006,12.071 Z M7.007,12.071 L7.007,11.071 L9.007,11.071 L9.007,12.071 L7.007,12.071 Z M11.006,12.071 L11.006,11.071 L13.006,11.071 L13.006,12.071 L11.006,12.071 Z" id="Shape"></path>
            </g>
        </g>
    </g>
</svg>