<?xml version="1.0" encoding="UTF-8"?>
<svg width="16px" height="14px" viewBox="0 0 16 14" version="1.1" xmlns="http://www.w3.org/2000/svg" xmlns:xlink="http://www.w3.org/1999/xlink">
    <!-- Generator: Sketch 51.3 (57544) - http://www.bohemiancoding.com/sketch -->
    <title>icon/dark/camera</title>
    <desc>Created with Sketch.</desc>
    <defs></defs>
    <g id="Ericsson-Design-System-v1.4" stroke="none" stroke-width="1" fill-rule="evenodd">
        <g id="Dark-theme" transform="translate(-1033.000000, -256.000000)">
            <g id="icon/dark/camera" transform="translate(1033.000000, 255.000000)">
                <path d="M4.9437,1.4998 L10.9997,1.4998 L11.9997,3.5008 L16.0007,3.5008 L16.0007,14.4548 L-0.0003,14.4548 L-0.0003,3.5008 L3.9997,3.5008 L4.9437,1.4998 Z M0.9997,4.5008 L0.9997,13.4548 L15.0007,13.4548 L15.0007,4.5008 L11.9997,4.5008 L11.3817,4.5008 L11.1047,3.9468 L10.3817,2.4998 L5.5777,2.4998 L4.9047,3.9258 L4.6337,4.5008 L3.9997,4.5008 L0.9997,4.5008 Z M4.348,8.49630092 C4.348,6.48195649 5.983,4.8473 8,4.8473 C10.017,4.8473 11.652,6.48195649 11.652,8.49630092 C11.652,10.5126437 10.017,12.1473002 8,12.1473002 C5.983,12.1473002 4.348,10.5126437 4.348,8.49630092 Z M10.652,8.49630123 C10.652,7.0359544 9.462,5.8473 8,5.8473 C6.538,5.8473 5.348,7.0359544 5.348,8.49630123 C5.348,9.95764693 6.538,11.1473002 8,11.1473002 C9.462,11.1473002 10.652,9.95764693 10.652,8.49630123 Z" id="Shape"></path>
            </g>
        </g>
    </g>
</svg>