<?xml version="1.0" encoding="UTF-8"?>
<svg width="16px" height="12px" viewBox="0 0 16 12" version="1.1" xmlns="http://www.w3.org/2000/svg" xmlns:xlink="http://www.w3.org/1999/xlink">
    <!-- Generator: Sketch 51.3 (57544) - http://www.bohemiancoding.com/sketch -->
    <title>icon/dark/cloud</title>
    <desc>Created with Sketch.</desc>
    <defs></defs>
    <g id="Ericsson-Design-System-v1.4" stroke="none" stroke-width="1" fill-rule="evenodd">
        <g id="Dark-theme" transform="translate(-905.000000, -193.000000)">
            <g id="icon/dark/cloud" transform="translate(905.000000, 191.000000)">
                <path d="M12.667,12.4993 L3.8,12.4993 C2.254,12.4993 1,11.1563 1,9.4993 C1,7.8423 2.254,6.4993 3.8,6.4993 C4.534,6.4993 5.196,6.8093 5.696,7.3033 C5.688,7.2013 5.667,7.1033 5.667,7.0003 C5.667,5.0663 7.129,3.5003 8.934,3.5003 C10.738,3.5003 12.201,5.0663 12.201,7.0003 C12.201,7.1933 12.175,7.3813 12.147,7.5663 C12.315,7.5253 12.488,7.4993 12.667,7.4993 C13.956,7.4993 15,8.6183 15,9.9993 C15,11.3803 13.956,12.4993 12.667,12.4993 M13.178,6.5403 C12.959,4.2733 11.14,2.5003 8.934,2.5003 C7.023,2.5003 5.402,3.8313 4.86,5.6593 C4.519,5.5543 4.163,5.4993 3.8,5.4993 C1.705,5.4993 0,7.2943 0,9.4993 C0,11.7053 1.705,13.4993 3.8,13.4993 L12.667,13.4993 C14.505,13.4993 16,11.9293 16,9.9993 C16,8.2523 14.775,6.7993 13.178,6.5403" id="Shape"></path>
            </g>
        </g>
    </g>
</svg>