<?xml version="1.0" encoding="UTF-8"?>
<svg width="14px" height="16px" viewBox="0 0 14 16" version="1.1" xmlns="http://www.w3.org/2000/svg" xmlns:xlink="http://www.w3.org/1999/xlink">
    <!-- Generator: Sketch 51.3 (57544) - http://www.bohemiancoding.com/sketch -->
    <title>icon/dark/cobra</title>
    <desc>Created with Sketch.</desc>
    <defs></defs>
    <g id="Ericsson-Design-System-v1.4" stroke="none" stroke-width="1" fill-rule="evenodd">
        <g id="Dark-theme" transform="translate(-938.000000, -255.000000)">
            <g id="icon/dark/cobra" transform="translate(937.000000, 255.000000)">
                <path d="M14.163,16.0001 L3.35499995,16.0001 L3.35499995,15.5001 C3.35499995,13.0941 4.97499995,10.9691 7.25799995,10.3081 C7.28199995,9.5251 7.22799995,7.6401 6.19099995,6.5251 C5.70499995,6.0041 4.67199995,6.0021 4.31399995,6.0461 L3.91399995,6.0951 L1.79999995,0.0001 L2.51599995,0.0131 C2.62699995,0.0151 5.27699995,0.0801 7.55399995,1.5971 C10.058,3.2641 11.001,7.2581 11.059,10.6081 C12.955,11.4971 14.163,13.3821 14.163,15.5001 L14.163,16.0001 Z M13.135,15.0001 C12.955,13.3911 11.913,12.0101 10.378,11.4031 L10.062,11.2781 L10.062,10.9381 C10.062,7.7871 9.25799995,3.9331 6.99999995,2.4291 C5.65299995,1.5311 4.11799995,1.2011 3.23299995,1.0811 L4.60199995,5.0301 C5.14599995,4.9921 6.25499995,5.1261 6.92299995,5.8441 C8.55099995,7.5931 8.24599995,10.6251 8.23199995,10.7561 L8.19399995,11.1161 L7.83899995,11.1921 C5.98499995,11.5871 4.59799995,13.1471 4.38399995,15.0001 L13.135,15.0001 Z" id="Shape"></path>
            </g>
        </g>
    </g>
</svg>