<?xml version="1.0" encoding="UTF-8"?>
<svg width="14px" height="14px" viewBox="0 0 14 14" version="1.1" xmlns="http://www.w3.org/2000/svg" xmlns:xlink="http://www.w3.org/1999/xlink">
    <!-- Generator: Sketch 51.3 (57544) - http://www.bohemiancoding.com/sketch -->
    <title>icon/dark/coffee</title>
    <desc>Created with Sketch.</desc>
    <defs></defs>
    <g id="Ericsson-Design-System-v1.4" stroke="none" stroke-width="1" fill-rule="evenodd">
        <g id="Dark-theme" transform="translate(-1098.000000, -288.000000)">
            <g id="icon/dark/coffee" transform="translate(1097.000000, 287.000000)">
                <path d="M12.687,8.438 C13.943,8.438 14.966,9.581 14.966,10.986 C14.966,12.391 13.943,13.535 12.687,13.535 L10.729,13.535 C10.31,14.397 9.433,14.999 8.411,14.999 L3.586,14.999 C2.16,14.999 1,13.839 1,12.413 L1,7 L10.995,7 L10.995,8.438 L12.687,8.438 Z M9.995,12.416 L9.995,8 L2,8 L2,12.413 C2,13.287 2.712,13.999 3.586,13.999 L8.411,13.999 C9.284,13.999 9.995,13.289 9.995,12.416 Z M12.687,12.535 C13.392,12.535 13.966,11.841 13.966,10.986 C13.966,10.133 13.392,9.438 12.687,9.438 L10.995,9.438 L10.995,12.416 C10.995,12.457 10.984,12.495 10.982,12.535 L12.687,12.535 Z M5.5742,3.9238 C5.2322,4.3428 4.9362,4.7048 4.9362,5.9998 L3.9362,5.9998 C3.9362,4.3488 4.3952,3.7868 4.8002,3.2908 C5.1642,2.8458 5.4782,2.4598 5.4782,0.9998 L6.4782,0.9998 C6.4782,2.8168 5.9982,3.4038 5.5742,3.9238 Z M8.5742,3.9238 C8.2322,4.3428 7.9362,4.7048 7.9362,5.9998 L6.9362,5.9998 C6.9362,4.3488 7.3952,3.7868 7.8002,3.2908 C8.1642,2.8458 8.4782,2.4598 8.4782,0.9998 L9.4782,0.9998 C9.4782,2.8168 8.9982,3.4038 8.5742,3.9238 Z" id="Shape"></path>
            </g>
        </g>
    </g>
</svg>