<?xml version="1.0" encoding="UTF-8"?>
<svg width="16px" height="14px" viewBox="0 0 16 14" version="1.1" xmlns="http://www.w3.org/2000/svg" xmlns:xlink="http://www.w3.org/1999/xlink">
    <!-- Generator: Sketch 51.3 (57544) - http://www.bohemiancoding.com/sketch -->
    <title>icon/dark/dashboard</title>
    <desc>Created with Sketch.</desc>
    <defs></defs>
    <g id="Ericsson-Design-System-v1.4" stroke="none" stroke-width="1" fill-rule="evenodd">
        <g id="Dark-theme" transform="translate(-1033.000000, -192.000000)">
            <g id="icon/dark/dashboard" transform="translate(1033.000000, 191.000000)">
                <path d="M8,1 C3.58826455,1 0,4.58826455 0,9 C0,11.315266 1.00248633,13.5161611 2.75087021,15.0367976 L3.07807061,14.6608652 L4.19592243,13.544008 L3.47687718,12.8259572 L2.71606166,13.5867727 C1.72749876,12.4470413 1.13276977,11.0198906 1.0213824,9.50820487 L2.09547489,9.50820487 L2.09547489,8.49179513 L1.02038787,8.49179513 C1.13276977,6.94430632 1.74639483,5.53605172 2.70512183,4.42615614 L3.46394828,5.18597713 L4.18299354,4.46693187 L3.42317255,3.70810542 C4.53107907,2.74937842 5.93933366,2.1337643 7.48781701,2.02038787 L7.48781701,3.09746395 L8.50422675,3.09746395 L8.50422675,2.01939334 C10.0537046,2.13177524 11.4629538,2.7454003 12.5728493,3.7041273 L11.8100448,4.46693187 L12.5280955,5.1849826 L13.2909,4.42217802 C14.2516161,5.53107907 14.8672302,6.94032819 14.9796121,8.48980607 L13.8985579,8.48980607 L13.8985579,9.50621581 L14.9786176,9.50621581 C14.8692193,11.0089508 14.2784684,12.4311288 13.2998508,13.5678767 L12.52909,12.7961213 L11.8110393,13.5151666 L12.9438091,14.6479364 L13.2690204,15.0198906 C15.0044754,13.4992541 16,11.3053207 16,9 C16,4.58826455 12.4117355,1 8,1 M7.14000015,7.4364 C7.48900015,7.2484 7.88600015,7.1724 8.28400015,7.2344 C8.76700015,7.3084 9.19200015,7.5674 9.48000015,7.9614 C9.77000015,8.3554 9.88700015,8.8404 9.81200015,9.3224 C9.73900015,9.8064 9.48000015,10.2324 9.08500015,10.5204 C8.75900015,10.7584 8.38100015,10.8734 8.00600015,10.8734 C7.44100015,10.8734 6.88400015,10.6144 6.52600015,10.1264 C6.23700015,9.7304 6.11900015,9.2474 6.19400015,8.7634 C6.22800015,8.5454 6.30400015,8.3404 6.41000015,8.1514 L4.59000015,6.3314 L5.31300015,5.6084 L7.14000015,7.4364 Z M7.35000015,9.5224 C7.61500015,9.8824 8.12100015,9.9594 8.48200015,9.6954 C8.65600015,9.5684 8.77000015,9.3814 8.80200015,9.1674 C8.83600015,8.9534 8.78400015,8.7404 8.65600015,8.5654 C8.52800015,8.3904 8.34000015,8.2774 8.12700015,8.2444 C8.08500015,8.2364 8.04300015,8.2344 8.00200015,8.2344 C7.83200015,8.2344 7.66600015,8.2884 7.52600015,8.3904 C7.35000015,8.5184 7.23700015,8.7074 7.20400015,8.9204 C7.17100015,9.1334 7.22300015,9.3474 7.35000015,9.5224 Z" id="Shape"></path>
            </g>
        </g>
    </g>
</svg>