<?xml version="1.0" encoding="UTF-8"?>
<svg width="12px" height="16px" viewBox="0 0 12 16" version="1.1" xmlns="http://www.w3.org/2000/svg" xmlns:xlink="http://www.w3.org/1999/xlink">
    <!-- Generator: Sketch 51.3 (57544) - http://www.bohemiancoding.com/sketch -->
    <title>icon/dark/document</title>
    <desc>Created with Sketch.</desc>
    <defs></defs>
    <g id="Ericsson-Design-System-v1.4" stroke="none" stroke-width="1" fill-rule="evenodd">
        <g id="Dark-theme" transform="translate(-843.000000, -159.000000)">
            <g id="icon/dark/document" transform="translate(841.000000, 159.000000)">
                <path d="M2,0 L9.999,0 L14,4.004 L14,16 L2,16 L2,0 Z M3,1 L3,14.999 L13,14.999 L13,4.418 L9.585,1 L3,1 Z M4,4.998 L4,4 L8,4 L8,4.998 L4,4.998 Z M4,7.998 L4,7 L11,7 L11,7.998 L4,7.998 Z M4,10.999 L4,10 L11,10 L11,10.999 L4,10.999 Z" id="Shape"></path>
            </g>
        </g>
    </g>
</svg>