<?xml version="1.0" encoding="UTF-8"?>
<svg width="16px" height="12px" viewBox="0 0 16 12" version="1.1" xmlns="http://www.w3.org/2000/svg" xmlns:xlink="http://www.w3.org/1999/xlink">
    <!-- Generator: Sketch 51.3 (57544) - http://www.bohemiancoding.com/sketch -->
    <title>icon/dark/eye</title>
    <desc>Created with Sketch.</desc>
    <defs></defs>
    <g id="Ericsson-Design-System-v1.4" stroke="none" stroke-width="1" fill-rule="evenodd">
        <g id="Dark-theme" transform="translate(-1225.000000, -161.000000)">
            <g id="icon/dark/eye" transform="translate(1225.000000, 159.000000)">
                <path d="M8.001,13.26 C3.727,13.26 0.170000002,9.44000001 0.170000002,8.00000001 C0.170000002,6.55900001 3.727,2.74000001 8.001,2.74000001 C12.309,2.74000001 15.832,6.71100001 15.832,8.00000001 C15.832,9.28900001 12.309,13.26 8.001,13.26 Z M8.001,3.74000001 C4.084,3.74000001 1.17,7.31500001 1.17,8.00000001 C1.17,8.68400001 4.084,12.26 8.001,12.26 C11.743,12.26 14.775,8.69200001 14.832,8.00000001 C14.775,7.30700001 11.743,3.74000001 8.001,3.74000001 Z M8,11.1500001 C6.26330793,11.1500001 4.8499999,9.73669207 4.8499999,8 C4.8499999,6.26330793 6.26330793,4.8499999 8,4.8499999 C9.73669207,4.8499999 11.1500001,6.26330793 11.1500001,8 C11.1500001,9.73669207 9.73669207,11.1500001 8,11.1500001 Z M8,5.8499999 C6.81430885,5.8499999 5.8499999,6.81530607 5.8499999,8 C5.8499999,9.18569115 6.81430885,10.1500001 8,10.1500001 C9.18569115,10.1500001 10.1500001,9.18569115 10.1500001,8 C10.1500001,6.81530607 9.18569115,5.8499999 8,5.8499999 Z" id="Shape"></path>
            </g>
        </g>
    </g>
</svg>