<?xml version="1.0" encoding="UTF-8"?>
<svg width="14px" height="14px" viewBox="0 0 14 14" version="1.1" xmlns="http://www.w3.org/2000/svg" xmlns:xlink="http://www.w3.org/1999/xlink">
    <!-- Generator: Sketch 51.3 (57544) - http://www.bohemiancoding.com/sketch -->
    <title>icon/dark/fullscreen</title>
    <desc>Created with Sketch.</desc>
    <defs></defs>
    <g id="Ericsson-Design-System-v1.4" stroke="none" stroke-width="1" fill-rule="evenodd">
        <g id="Dark-theme" transform="translate(-938.000000, -96.000000)">
            <g id="icon/dark/fullscreen" transform="translate(937.000000, 95.000000)">
                <path d="M1,1 L5.99978572,1 L5.99978572,2 L1.99995714,2 L1.99995714,6 L1,6 L1,1 Z M14.9994,1 L14.9994,6 L13.9994429,6 L13.9994429,2 L9.9996143,2 L9.9996143,1 L14.9994,1 Z M1,9.9996 L1.99995714,9.9996 L1.99995714,14.0006 L5.99978572,14.0006 L5.99978572,14.9996 L1,14.9996 L1,9.9996 Z M13.9990429,9.9996 L15,9.9996 L15,14.9996 L9.99921432,14.9996 L9.99921432,14.0006 L13.9990429,14.0006 L13.9990429,9.9996 Z" id="Shape"></path>
            </g>
        </g>
    </g>
</svg>