<?xml version="1.0" encoding="UTF-8"?>
<svg width="16px" height="16px" viewBox="0 0 16 16" version="1.1" xmlns="http://www.w3.org/2000/svg" xmlns:xlink="http://www.w3.org/1999/xlink">
    <!-- Generator: Sketch 51.3 (57544) - http://www.bohemiancoding.com/sketch -->
    <title>icon/dark/globe</title>
    <desc>Created with Sketch.</desc>
    <defs></defs>
    <g id="Ericsson-Design-System-v1.4" stroke="none" stroke-width="1" fill-rule="evenodd">
        <g id="Dark-theme" transform="translate(-777.000000, -191.000000)">
            <g id="icon/dark/globe" transform="translate(777.000000, 191.000000)">
                <path d="M8,0.0001 C12.418,0.0001 16,3.5821 16,8.0001 C16,12.4181 12.418,16.0001 8,16.0001 C3.582,16.0001 0,12.4181 0,8.0001 C0,3.5821 3.582,0.0001 8,0.0001 Z M8,0.0001 L8,1.0001 C4.14,1.0001 1,4.1401 1,8.0001 C1,11.8601 4.14,15.0001 8,15.0001 C11.86,15.0001 15,11.8601 15,8.0001 C15,4.1401 11.86,1.0001 8,1.0001 L8,0.0001 Z" id="Shape"></path>
                <path d="M5.15018647,11.3594426 C5.00870696,10.4808744 4.92375156,9.51605095 4.90274366,8.5 L0.25,8.5 L0.25,7.5 L5.00294532,7.5 C5.02389189,6.48707954 5.10839266,5.52507261 5.2490926,4.64868435 C4.71083944,4.52662696 4.19860308,4.3706354 3.71364401,4.18611684 C2.95028726,3.89567277 2.41199568,3.60110933 2.11825868,3.39526878 L2.69214132,2.57633122 C2.74281431,2.61184107 2.85539077,2.68226226 3.0271286,2.77624049 C3.32151621,2.93733501 3.66979759,3.09949613 4.06925599,3.25148316 C4.50145652,3.415928 4.95822263,3.55572517 5.43852636,3.66615858 C5.9412047,1.46048685 6.84482704,0 7.9978,0 L7.9978,1 C7.4263067,1 6.82330545,2.11961948 6.43073205,3.84654664 C6.93805368,3.91517944 7.46787782,3.9518 8.0192,3.9518 C8.55376024,3.9518 9.06964768,3.9164735 9.56569248,3.85017598 C9.17313921,2.12118832 8.56969355,1 7.9978,1 L7.9978,0 C9.15168487,0 10.0558245,1.46279801 10.5582656,3.67139347 C11.0465402,3.56008839 11.5123677,3.41835814 11.9544217,3.25114068 C12.3569031,3.09889253 12.7093749,2.93638549 13.0085852,2.77487255 C13.1834526,2.68047957 13.2987655,2.6095847 13.3512633,2.57355392 L13.9171367,3.39804608 C13.6187613,3.60282993 13.0746362,3.89654729 12.3082283,4.18645932 C11.8138252,4.37347902 11.2930204,4.53119436 10.7473525,4.65395342 C10.8875457,5.52892795 10.9717501,6.48910912 10.9926547,7.5 L15.75,7.5 L15.75,8.5 L10.8924563,8.5 C10.8716591,9.50586125 10.7881906,10.4615173 10.649253,11.3329839 C11.1945801,11.4556695 11.7132673,11.6131603 12.2040108,11.7998555 C12.9674679,12.0903 13.505798,12.3848662 13.7995413,12.5907112 L13.2256587,13.4096488 C13.1749893,13.3741415 13.0624128,13.3037224 12.8906673,13.2097458 C12.5962631,13.0486522 12.2479496,12.8864916 11.8484392,12.7345045 C11.4108059,12.5680142 10.9479741,12.4267881 10.4610087,12.3157206 C9.95915982,14.5315551 9.0537414,16.00008 7.8976,16.00008 L7.8976,15.00008 C8.47091473,15.00008 9.07593858,13.8733124 9.4684151,12.137003 C8.97527156,12.0711127 8.46091257,12.035444 7.92625554,12.034213 C7.37370211,12.0374911 6.84128197,12.0785419 6.33029935,12.1525095 C6.72286714,13.880018 7.32599377,15.00008 7.8976,15.00008 L7.8976,16.00008 C6.74606952,16.00008 5.84326614,14.5432453 5.34021495,12.3421965 C4.89506166,12.44896 4.4689401,12.5810568 4.06287825,12.7346593 C3.66039687,12.8869075 3.30792508,13.0494145 3.00871484,13.2109274 C2.83384744,13.3053204 2.71853447,13.3762153 2.66603668,13.4122461 L2.10016332,12.5877539 C2.39853869,12.3829701 2.94266379,12.0892527 3.70907175,11.7993407 C4.16718335,11.6260491 4.64796292,11.4779176 5.15018647,11.3594426 Z M6.14113552,11.1694947 C6.70376051,11.0858791 7.289739,11.0390411 7.8976,11.0343846 L7.8976,11.03418 C7.90654199,11.03418 7.91547896,11.0341889 7.9244109,11.0342067 C7.94893845,11.034069 7.97350151,11.034 7.9981,11.034 L7.9981,11.0345556 C8.57224854,11.0388517 9.12543787,11.0799125 9.65664681,11.1533518 C9.7853664,10.3462391 9.8696315,9.44931883 9.89177595,8.5 L5.90342405,8.5 C5.92571624,9.45565256 6.01096077,10.358205 6.14113552,11.1694947 Z M6.24143513,4.82996462 C6.11120789,5.64139196 6.02592669,6.54413335 6.00362591,7.5 L9.99197409,7.5 C9.96970775,6.54560933 9.88465533,5.64417997 9.75476781,4.8337241 C9.19825673,4.9107289 8.61926797,4.9518 8.0192,4.9518 C7.4022773,4.9518 6.80927118,4.90939582 6.24143513,4.82996462 Z" id="Shape"></path>
            </g>
        </g>
    </g>
</svg>