<?xml version="1.0" encoding="UTF-8"?>
<svg width="14px" height="14px" viewBox="0 0 14 14" version="1.1" xmlns="http://www.w3.org/2000/svg" xmlns:xlink="http://www.w3.org/1999/xlink">
    <!-- Generator: Sketch 51.3 (57544) - http://www.bohemiancoding.com/sketch -->
    <title>icon/dark/heart</title>
    <desc>Created with Sketch.</desc>
    <defs></defs>
    <g id="Ericsson-Design-System-v1.4" stroke="none" stroke-width="1" fill-rule="evenodd">
        <g id="Dark-theme" transform="translate(-1290.000000, -192.000000)">
            <g id="icon/dark/heart" transform="translate(1289.000000, 191.000000)">
                <path d="M11.1499,1.4997 C9.9319,1.4997 8.7629,2.0697 7.9999,2.9727 C7.2369,2.0697 6.0679,1.4997 4.8499,1.4997 C2.6939,1.4997 0.9999,3.2037 0.9999,5.3737 C0.9999,8.0357 3.3799,10.2047 6.9849,13.4937 L7.9999,14.4237 L9.0149,13.5007 C12.6199,10.2047 14.9999,8.0357 14.9999,5.3737 C14.9999,3.2037 13.3059,1.4997 11.1499,1.4997 M11.1499,2.4997 C12.7479,2.4997 13.9999,3.7627 13.9999,5.3737 C13.9999,7.5877 11.7589,9.6367 8.3419,12.7607 L8.0029,13.0687 L7.6499,12.7467 C4.2479,9.6427 1.9999,7.5917 1.9999,5.3737 C1.9999,3.7627 3.2519,2.4997 4.8499,2.4997 C5.7519,2.4997 6.6439,2.9177 7.2369,3.6177 L7.9999,4.5207 L8.7629,3.6177 C9.3559,2.9177 10.2479,2.4997 11.1499,2.4997" id="Fill-1"></path>
            </g>
        </g>
    </g>
</svg>