<?xml version="1.0" encoding="UTF-8"?>
<svg width="16px" height="16px" viewBox="0 0 16 16" version="1.1" xmlns="http://www.w3.org/2000/svg" xmlns:xlink="http://www.w3.org/1999/xlink">
    <!-- Generator: Sketch 51.3 (57544) - http://www.bohemiancoding.com/sketch -->
    <title>icon/dark/help</title>
    <desc>Created with Sketch.</desc>
    <defs></defs>
    <g id="Ericsson-Design-System-v1.4" stroke="none" stroke-width="1" fill-rule="evenodd">
        <g id="Dark-theme" transform="translate(-1193.000000, -159.000000)">
            <g id="icon/dark/help" transform="translate(1193.000000, 159.000000)">
                <path d="M8,16 C3.58216433,16 0,12.41806 0,7.99949903 C0,3.58194001 3.58216433,3.94430453e-31 8,3.94430453e-31 C12.4188377,3.94430453e-31 16,3.58194001 16,7.99949903 C16,12.41806 12.4188377,16 8,16 Z M8,0.9997 C4.14017755,0.9997 1,4.14065497 1,7.99919889 C1,11.858745 4.14017755,14.9997 8,14.9997 C11.8598225,14.9997 15,11.858745 15,7.99919889 C15,4.14065497 11.8598225,0.9997 8,0.9997 Z M7.9323,3.9839 C9.6633,3.9839 10.4523,5.1179 10.4523,6.1719 C10.4523,6.9809 10.0513,7.4879 9.6983,7.9349 C9.6113,8.0449 9.1863,8.6239 9.0693,8.7779 C8.6743,9.2999 8.4843,9.5699 8.4843,9.9839 L7.4843,9.9839 C7.4843,9.2149 7.8493,8.7329 8.2723,8.1739 C8.3823,8.0289 8.8143,7.4389 8.9133,7.3139 C9.2143,6.9339 9.4523,6.6329 9.4523,6.1719 C9.4523,5.6239 9.0543,4.9839 7.9323,4.9839 C6.5643,4.9839 6.4953,5.9739 6.4953,6.1719 L5.4943,6.1719 C5.4943,5.1189 6.2573,3.9839 7.9323,3.9839 Z M8,12.5 C7.5862069,12.5 7.25,12.170812 7.25,11.7494514 C7.25,11.329188 7.5862069,11 8,11 C8.42672414,11 8.75,11.329188 8.75,11.7494514 C8.75,12.170812 8.42672414,12.5 8,12.5 Z" id="Shape"></path>
            </g>
        </g>
    </g>
</svg>