<?xml version="1.0" encoding="UTF-8"?>
<svg width="16px" height="14px" viewBox="0 0 16 14" version="1.1" xmlns="http://www.w3.org/2000/svg" xmlns:xlink="http://www.w3.org/1999/xlink">
    <!-- Generator: Sketch 51.3 (57544) - http://www.bohemiancoding.com/sketch -->
    <title>icon/dark/hide_left_panel</title>
    <desc>Created with Sketch.</desc>
    <defs></defs>
    <g id="Ericsson-Design-System-v1.4" stroke="none" stroke-width="1" fill-rule="evenodd">
        <g id="Dark-theme" transform="translate(-1161.000000, -288.000000)">
            <g id="icon/dark/hide_left_panel" transform="translate(1161.000000, 287.000000)">
                <path d="M0,14.9996 L0,0.9996 L16,0.9996 L16,14.9996 L0,14.9996 Z M1,1.9996 L1,14 L6,14 L6,1.9996 L1,1.9996 Z M7,14 L15,14 L15,2 L7,2 L7,14 Z M2,5 L2,4 L5,4 L5,5 L2,5 Z M2,8.5 L2,7.5 L5,7.5 L5,8.5 L2,8.5 Z M2,12 L2,11 L5,11 L5,12 L2,12 Z M11.2749,10.7370002 L8.5249,7.98700023 L11.2869,5.26000023 L11.9889,5.97100023 L9.9429,7.99100023 L11.9819,10.0300002 L11.2749,10.7370002 Z" id="Shape"></path>
            </g>
        </g>
    </g>
</svg>