<?xml version="1.0" encoding="UTF-8"?>
<svg width="16px" height="14px" viewBox="0 0 16 14" version="1.1" xmlns="http://www.w3.org/2000/svg" xmlns:xlink="http://www.w3.org/1999/xlink">
    <!-- Generator: Sketch 51.3 (57544) - http://www.bohemiancoding.com/sketch -->
    <title>icon/dark/hide_right_panel</title>
    <desc>Created with Sketch.</desc>
    <defs></defs>
    <g id="Ericsson-Design-System-v1.4" stroke="none" stroke-width="1" fill-rule="evenodd">
        <g id="Dark-theme" transform="translate(-1225.000000, -288.000000)">
            <g id="icon/dark/hide_right_panel" transform="translate(1225.000000, 287.000000)">
                <path d="M16,14.9996 L0,14.9996 L0,0.9996 L16,0.9996 L16,14.9996 Z M15,1.9996 L10,1.9996 L10,14 L15,14 L15,1.9996 Z M9,14 L9,2 L1,2 L1,14 L9,14 Z M14,5 L11,5 L11,4 L14,4 L14,5 Z M14,8.5 L11,8.5 L11,7.5 L14,7.5 L14,8.5 Z M14,12 L11,12 L11,11 L14,11 L14,12 Z M4.7251,10.7370002 L4.0181,10.0300002 L6.0571,7.99100023 L4.0111,5.97100023 L4.7131,5.26000023 L7.4751,7.98700023 L4.7251,10.7370002 Z" id="Shape"></path>
            </g>
        </g>
    </g>
</svg>