<?xml version="1.0" encoding="UTF-8"?>
<svg width="16px" height="16px" viewBox="0 0 16 16" version="1.1" xmlns="http://www.w3.org/2000/svg" xmlns:xlink="http://www.w3.org/1999/xlink">
    <!-- Generator: Sketch 51.3 (57544) - http://www.bohemiancoding.com/sketch -->
    <title>icon/dark/info</title>
    <desc>Created with Sketch.</desc>
    <defs></defs>
    <g id="Ericsson-Design-System-v1.4" stroke="none" stroke-width="1" fill-rule="evenodd">
        <g id="Dark-theme" transform="translate(-1161.000000, -159.000000)">
            <g id="icon/dark/info" transform="translate(1161.000000, 159.000000)">
                <path d="M8,16 C3.58216433,16 0,12.41806 0,7.99949903 C0,3.58194001 3.58216433,-8.8817842e-16 8,-8.8817842e-16 C12.4188377,-8.8817842e-16 16,3.58194001 16,7.99949903 C16,12.41806 12.4188377,16 8,16 Z M8,0.9997 C4.14017755,0.9997 1,4.14065497 1,7.99919889 C1,11.858745 4.14017755,14.9997 8,14.9997 C11.8598225,14.9997 15,11.858745 15,7.99919889 C15,4.14065497 11.8598225,0.9997 8,0.9997 Z M8,5.5 C7.5862069,5.5 7.25,5.170812 7.25,4.74945135 C7.25,4.329188 7.5862069,4 8,4 C8.42672414,4 8.75,4.329188 8.75,4.74945135 C8.75,5.170812 8.42672414,5.5 8,5.5 Z M7.5,7 L8.5,7 L8.5,12 L7.5,12 L7.5,7 Z" id="Shape"></path>
            </g>
        </g>
    </g>
</svg>