<?xml version="1.0" encoding="UTF-8"?>
<svg width="16px" height="15px" viewBox="0 0 16 15" version="1.1" xmlns="http://www.w3.org/2000/svg" xmlns:xlink="http://www.w3.org/1999/xlink">
    <!-- Generator: Sketch 51.3 (57544) - http://www.bohemiancoding.com/sketch -->
    <title>icon/dark/language</title>
    <desc>Created with Sketch.</desc>
    <defs></defs>
    <g id="Ericsson-Design-System-v1.4" stroke="none" stroke-width="1" fill-rule="evenodd">
        <g id="Dark-theme" transform="translate(-809.000000, -191.000000)">
            <g id="icon/dark/language" transform="translate(809.000000, 191.000000)">
                <path d="M11.9184,5.4723 C11.6644,2.4083 9.1014,0.0003 5.9714,0.0003 C2.6734,0.0003 0.0004,2.6743 0.0004,5.9713 C0.0004,9.2693 2.6734,11.9433 5.9714,11.9433 C6.3814,11.9433 6.7764,11.8873 7.1634,11.8073 C7.7294,12.2503 8.4424,12.5473 9.2634,12.6303 L9.2634,15.0213 L12.2874,12.6523 C14.4484,12.5753 15.9994,11.0903 15.9994,9.0633 C15.9994,6.9823 14.3634,5.4723 12.1104,5.4723 L11.9184,5.4723 Z M1.0504,5.4713 C1.2544,3.4773 2.6254,1.8423 4.4794,1.2543 C3.9564,2.2853 3.6634,3.8553 3.6124,5.4713 L1.0504,5.4713 Z M7.2664,5.4713 L4.6224,5.4713 C4.7124,2.7273 5.4984,1.0553 5.9444,1.0553 C6.3894,1.0553 7.1764,2.7273 7.2664,5.4713 Z M8.2754,5.4713 C8.2244,3.8453 7.9284,2.2643 7.3994,1.2333 C9.2864,1.8043 10.6874,3.4543 10.8924,5.4713 L8.2754,5.4713 Z M3.6124,6.4713 C3.6634,8.0873 3.9564,9.6583 4.4794,10.6893 C2.6254,10.0993 1.2544,8.4663 1.0504,6.4713 L3.6124,6.4713 Z M4.6224,6.4713 L6.9664,6.4713 C6.2574,7.1103 5.8354,8.0123 5.8354,9.0633 C5.8354,9.6653 5.9864,10.2113 6.2384,10.6943 C6.1324,10.8203 6.0314,10.8873 5.9444,10.8873 C5.4984,10.8873 4.7124,9.2163 4.6224,6.4713 Z M11.9374,11.6553 L10.2634,12.9673 L10.2634,11.6553 L9.7634,11.6553 C8.0394,11.6553 6.8354,10.5903 6.8354,9.0633 C6.8354,7.5383 8.0394,6.4723 9.7634,6.4723 L12.1104,6.4723 C13.8114,6.4723 14.9994,7.5383 14.9994,9.0633 C14.9994,10.5903 13.8114,11.6553 12.1104,11.6553 L11.9374,11.6553 Z" id="Shape"></path>
            </g>
        </g>
    </g>
</svg>