<?xml version="1.0" encoding="UTF-8"?>
<svg width="12px" height="12px" viewBox="0 0 12 12" version="1.1" xmlns="http://www.w3.org/2000/svg" xmlns:xlink="http://www.w3.org/1999/xlink">
    <!-- Generator: Sketch 51.3 (57544) - http://www.bohemiancoding.com/sketch -->
    <title>icon/dark/link</title>
    <desc>Created with Sketch.</desc>
    <defs></defs>
    <g id="Ericsson-Design-System-v1.4" stroke="none" stroke-width="1" fill-rule="evenodd">
        <g id="Dark-theme" transform="translate(-1291.000000, -161.000000)">
            <g id="icon/dark/link" transform="translate(1289.000000, 159.000000)">
                <path d="M9.41149994,8.67299994 L8.70849994,7.96999994 L7.96949994,8.70799994 L8.67249994,9.41199994 C9.06249994,9.80299994 9.06249994,10.4359999 8.67249994,10.8259999 L5.84449994,13.6549999 C5.64849994,13.8499999 5.39349994,13.9479999 5.13749994,13.9479999 C4.88049994,13.9479999 4.62449994,13.8499999 4.42949994,13.6549999 L2.35249994,11.5769999 C1.96249994,11.1869999 1.96249994,10.5539999 2.35249994,10.1629999 L5.18149994,7.33499994 C5.37649994,7.13999994 5.63249994,7.04199994 5.88849994,7.04199994 C6.14449994,7.04199994 6.39949994,7.13999994 6.59549994,7.33499994 L7.26249994,8.00099994 L8.00049994,7.26299994 L7.33449994,6.59599994 C6.94349994,6.20499994 6.94349994,5.57299994 7.33449994,5.18199994 L10.1624999,2.35299994 C10.3574999,2.15799994 10.6134999,2.05999994 10.8694999,2.05999994 C11.1254999,2.05999994 11.3814999,2.15799994 11.5774999,2.35299994 L13.6544999,4.42999994 C14.0444999,4.82099994 14.0444999,5.45399994 13.6544999,5.84499994 L10.8254999,8.67299994 C10.6304999,8.86799994 10.3744999,8.96599994 10.1184999,8.96599994 C9.86249994,8.96599994 9.60649994,8.86799994 9.41149994,8.67299994 Z M7.96549994,10.1189999 L7.26249994,9.41499994 L6.34149994,10.3359999 L5.63449994,9.62899994 L6.55549994,8.70799994 L5.88749994,8.04199994 L3.06049994,10.8699999 L5.13749994,12.9479999 L7.96549994,10.1189999 Z M8.04149994,5.88899994 L8.70849994,6.55599994 L9.58049994,5.68399994 L10.2874999,6.39099994 L9.41549994,7.26299994 L10.1184999,7.96599994 L12.9464999,5.13699994 L10.8694999,3.06099994 L8.04149994,5.88899994 Z" id="Shape"></path>
            </g>
        </g>
    </g>
</svg>