<?xml version="1.0" encoding="UTF-8"?>
<svg width="12px" height="12px" viewBox="0 0 12 12" version="1.1" xmlns="http://www.w3.org/2000/svg" xmlns:xlink="http://www.w3.org/1999/xlink">
    <!-- Generator: Sketch 51.3 (57544) - http://www.bohemiancoding.com/sketch -->
    <title>icon/dark/list_view</title>
    <desc>Created with Sketch.</desc>
    <defs></defs>
    <g id="Ericsson-Design-System-v1.4" stroke="none" stroke-width="1" fill-rule="evenodd">
        <g id="Dark-theme" transform="translate(-843.000000, -97.000000)">
            <g id="icon/dark/list_view" transform="translate(841.000000, 95.000000)">
                <path d="M2,4 L2,2 L4,2 L4,4 L2,4 Z M6,4 L6,2 L13.999,2 L13.999,4 L6,4 Z M2,9 L2,7 L4,7 L4,9 L2,9 Z M6,9 L6,7 L13.999,7 L13.999,9 L6,9 Z M2,14 L2,12 L4,12 L4,14 L2,14 Z M6,12 L14,12 L14,14 L6,14 L6,12 Z" id="Shape"></path>
            </g>
        </g>
    </g>
</svg>