<?xml version="1.0" encoding="UTF-8"?>
<svg width="15px" height="14px" viewBox="0 0 15 14" version="1.1" xmlns="http://www.w3.org/2000/svg" xmlns:xlink="http://www.w3.org/1999/xlink">
    <!-- Generator: Sketch 51.3 (57544) - http://www.bohemiancoding.com/sketch -->
    <title>icon/dark/loudspeaker</title>
    <desc>Created with Sketch.</desc>
    <defs></defs>
    <g id="Ericsson-Design-System-v1.4" stroke="none" stroke-width="1" fill-rule="evenodd">
        <g id="Dark-theme" transform="translate(-938.000000, -288.000000)">
            <g id="icon/dark/loudspeaker" transform="translate(937.000000, 287.000000)">
                <path d="M13.0003,1.5003 C13.0143,4.16696667 13.0249667,5.5003 13.0323,5.5003 C14.1353,5.5003 15.0323,6.3973 15.0323,7.5003 C15.0323,8.6033 14.1353,9.5003 13.0003,9.4973 L13.0003,13.5003 C13.0003,13.5003 9.8173,10.9573 6.0883,10.1763 L3.8683,14.4843 L1.0073,12.9523 L2.5543,9.9433 L1.0003,9.9433 L1.0003,4.9293 L4.0003,4.9293 C8.5053,4.9293 13.0003,1.5003 13.0003,1.5003 Z M12.0003,11.5943 L12.0003,3.3593 C10.2033,4.4333 7.1363,5.9293 4.0003,5.9293 L2.0003,5.9293 L2.0003,8.9433 L4.0273,8.9433 C7.1743,8.9433 10.2113,10.4793 12.0003,11.5943 Z M13.0003,8.4943 C13.0113,8.4943 13.0213,8.5003 13.0323,8.5003 C13.5843,8.5003 14.0323,8.0523 14.0323,7.5003 C14.0323,6.9483 13.5843,6.5003 13.0323,6.5003 C13.0213,6.5003 13.0113,6.5073 13.0003,6.5073 L13.0003,8.4943 Z M3.4443,13.1233 L5.0493,10.0013 C4.7103,9.9643 4.3693,9.9433 4.0273,9.9433 L3.6793,9.9433 L2.3463,12.5343 L3.4443,13.1233 Z" id="Shape"></path>
            </g>
        </g>
    </g>
</svg>