<?xml version="1.0" encoding="UTF-8"?>
<svg width="12px" height="16px" viewBox="0 0 12 16" version="1.1" xmlns="http://www.w3.org/2000/svg" xmlns:xlink="http://www.w3.org/1999/xlink">
    <!-- Generator: Sketch 51.3 (57544) - http://www.bohemiancoding.com/sketch -->
    <title>icon/dark/medal</title>
    <desc>Created with Sketch.</desc>
    <defs></defs>
    <g id="Ericsson-Design-System-v1.4" stroke="none" stroke-width="1" fill-rule="evenodd">
        <g id="Dark-theme" transform="translate(-1291.000000, -255.000000)">
            <g id="icon/dark/medal" transform="translate(1289.000000, 255.000000)">
                <path d="M8.00100003,1.33226763e-14 C11.051,1.33226763e-14 13.532,2.482 13.532,5.532 C13.532,7.234 12.758,8.758 11.544,9.774 L11.544,15.848 L8.04100003,13.515 L4.53800003,15.848 L4.53800003,9.837 C3.27800003,8.823 2.47000003,7.271 2.47000003,5.532 C2.47000003,2.482 4.95100003,1.33226763e-14 8.00100003,1.33226763e-14 Z M8.00000024,10.063 C10.4984488,10.063 12.5300004,8.031 12.5300004,5.532 C12.5300004,3.033 10.4984488,1 8.00000024,1 C5.50155166,1 3.47000003,3.033 3.47000003,5.532 C3.47000003,8.031 5.50155166,10.063 8.00000024,10.063 Z M8.04100003,12.314 L10.544,13.981 L10.544,10.438 C9.78200003,10.835 8.91800003,11.063 8.00100003,11.063 C7.11500003,11.063 6.28000003,10.848 5.53800003,10.477 L5.53800003,13.981 L8.04100003,12.314 Z M8,2.6500001 C9.57165432,2.6500001 10.8499999,3.92857023 10.8499999,5.49949939 C10.8499999,7.07142977 9.57165432,8.3499999 8,8.3499999 C6.42834568,8.3499999 5.1500001,7.07142977 5.1500001,5.49949939 C5.1500001,3.92857023 6.42834568,2.6500001 8,2.6500001 Z M8.00000012,7.35000014 C9.01965362,7.35000014 9.85000014,6.52043068 9.85000014,5.49949917 C9.85000014,4.47956956 9.01965362,3.6500001 8.00000012,3.6500001 C6.98034661,3.6500001 6.1500001,4.47956956 6.1500001,5.49949917 C6.1500001,6.52043068 6.98034661,7.35000014 8.00000012,7.35000014 Z" id="Shape"></path>
            </g>
        </g>
    </g>
</svg>