<?xml version="1.0" encoding="UTF-8"?>
<svg width="14px" height="14px" viewBox="0 0 14 14" version="1.1" xmlns="http://www.w3.org/2000/svg" xmlns:xlink="http://www.w3.org/1999/xlink">
    <!-- Generator: Sketch 51.3 (57544) - http://www.bohemiancoding.com/sketch -->
    <title>icon/dark/message_smiley</title>
    <desc>Created with Sketch.</desc>
    <defs></defs>
    <g id="Ericsson-Design-System-v1.4" stroke="none" stroke-width="1" fill-rule="evenodd">
        <g id="Dark-theme" transform="translate(-842.000000, -256.000000)">
            <g id="icon/dark/message_smiley" transform="translate(841.000000, 255.000000)">
                <path d="M1,1.5008 L15,1.5008 L15,11.4998 L5,11.4998 L1,14.5558 L1,10.4098 L1,1.5008 Z M2,2.4998 L2,12.5338 L4.661,10.4998 L14,10.4998 L14,2.4998 L2,2.4998 Z M5,5.75 L5,4.75 L7.001,4.75 L7.001,5.75 L5,5.75 Z M9,5.75 L9,4.75 L11,4.75 L11,5.75 L9,5.75 Z M5.0591,7.6765 L5.7071,6.9145 C6.0041,7.1675 6.8231,7.7565 8.0001,7.7565 C9.1771,7.7565 9.9961,7.1675 10.2921,6.9145 L10.9411,7.6765 C10.5591,8.0005 9.5101,8.7565 8.0001,8.7565 C6.4901,8.7565 5.4401,8.0005 5.0591,7.6765 Z" id="Shape"></path>
            </g>
        </g>
    </g>
</svg>