<?xml version="1.0" encoding="UTF-8"?>
<svg width="14px" height="14px" viewBox="0 0 14 14" version="1.1" xmlns="http://www.w3.org/2000/svg" xmlns:xlink="http://www.w3.org/1999/xlink">
    <!-- Generator: Sketch 51.3 (57544) - http://www.bohemiancoding.com/sketch -->
    <title>icon/dark/message_contact_us</title>
    <desc>Created with Sketch.</desc>
    <defs></defs>
    <g id="Ericsson-Design-System-v1.4" stroke="none" stroke-width="1" fill-rule="evenodd">
        <g id="Dark-theme" transform="translate(-810.000000, -256.000000)">
            <g id="icon/dark/message_contact_us" transform="translate(809.000000, 255.000000)">
                <path d="M1,1.5008 L15,1.5008 L15,11.4998 L5,11.4998 L1,14.5558 L1,10.4098 L1,1.5008 Z M2,2.4998 L2,12.5338 L4.661,10.4998 L14,10.4998 L14,2.4998 L2,2.4998 Z M4.495,7 L4.495,6 L5.495,6 L5.495,7 L4.495,7 Z M7.5,7 L7.5,6 L8.5,6 L8.5,7 L7.5,7 Z M10.5,7 L10.5,6 L11.5,6 L11.5,7 L10.5,7 Z" id="Shape"></path>
            </g>
        </g>
    </g>
</svg>