<?xml version="1.0" encoding="UTF-8"?>
<svg width="12px" height="14px" viewBox="0 0 12 14" version="1.1" xmlns="http://www.w3.org/2000/svg" xmlns:xlink="http://www.w3.org/1999/xlink">
    <!-- Generator: Sketch 51.3 (57544) - http://www.bohemiancoding.com/sketch -->
    <title>icon/dark/notification</title>
    <desc>Created with Sketch.</desc>
    <defs></defs>
    <g id="Ericsson-Design-System-v1.4" stroke="none" stroke-width="1" fill-rule="evenodd">
        <g id="Dark-theme" transform="translate(-939.000000, -160.000000)">
            <g id="icon/dark/notification" transform="translate(937.000000, 159.000000)">
                <path d="M4.254,8.3482 L4.421,8.1822 C5.107,7.4952 5.099,6.8682 5.08,5.4942 L5.074,4.7552 C5.074,2.6902 6.539,1.7492 7.899,1.7492 C9.261,1.7492 10.726,2.6902 10.726,4.7552 L10.72,5.4942 C10.701,6.8682 10.693,7.4952 11.379,8.1822 L11.546,8.3482 C12.609,9.4082 13.05,9.8462 13.05,11.6912 L13.05,12.1912 L9.94,12.1912 C9.942,12.2292 9.95,12.2662 9.95,12.3042 C9.95,13.4342 9.03,14.3542 7.899,14.3542 C6.77,14.3542 5.85,13.4342 5.85,12.3042 C5.85,12.2662 5.857,12.2292 5.86,12.1912 L2.75,12.1912 L2.75,11.6912 C2.75,9.8462 3.191,9.4082 4.254,8.3482 Z M5.128,8.8892 L4.96,9.0572 C4.089,9.9242 3.817,10.1952 3.762,11.1912 L12.038,11.1912 C11.982,10.1952 11.711,9.9242 10.84,9.0572 L10.672,8.8892 C9.688,7.9052 9.7,6.9412 9.72,5.4812 L9.726,4.7552 C9.726,2.8462 8.204,2.7492 7.899,2.7492 C7.595,2.7492 6.074,2.8462 6.074,4.7552 L6.08,5.4812 C6.1,6.9412 6.112,7.9052 5.128,8.8892 Z M6.85,12.3042 C6.85,12.8832 7.32,13.3542 7.899,13.3542 C8.479,13.3542 8.95,12.8832 8.95,12.3042 C8.95,12.2642 8.934,12.2302 8.929,12.1912 L6.871,12.1912 C6.866,12.2302 6.85,12.2642 6.85,12.3042 Z" id="Shape"></path>
            </g>
        </g>
    </g>
</svg>