<?xml version="1.0" encoding="UTF-8"?>
<svg width="12px" height="12px" viewBox="0 0 12 12" version="1.1" xmlns="http://www.w3.org/2000/svg" xmlns:xlink="http://www.w3.org/1999/xlink">
    <!-- Generator: Sketch 51.3 (57544) - http://www.bohemiancoding.com/sketch -->
    <title>icon/dark/options</title>
    <desc>Created with Sketch.</desc>
    <defs></defs>
    <g id="Ericsson-Design-System-v1.4" stroke="none" stroke-width="1" fill-rule="evenodd">
        <g id="Dark-theme" transform="translate(-779.000000, -225.000000)">
            <g id="icon/dark/options" transform="translate(777.000000, 223.000000)">
                <path d="M8.56300874,3.5 C8.78503014,2.63738639 9.56808029,2 10.5,2 C11.4319197,2 12.2149699,2.63738639 12.4369913,3.5 L14,3.5 L14,4.5 L12.4369913,4.5 C12.2149699,5.36261361 11.4319197,6 10.5,6 C9.56808029,6 8.78503014,5.36261361 8.56300874,4.5 L2,4.5 L2,3.5 L8.56300874,3.5 Z M10.5,5 C11.0522847,5 11.5,4.55228475 11.5,4 C11.5,3.44771525 11.0522847,3 10.5,3 C9.94771525,3 9.5,3.44771525 9.5,4 C9.5,4.55228475 9.94771525,5 10.5,5 Z M4.06300874,7.5 C4.28503014,6.63738639 5.06808029,6 6,6 C6.93191971,6 7.71496986,6.63738639 7.93699126,7.5 L14,7.5 L14,8.5 L7.93699126,8.5 C7.71496986,9.36261361 6.93191971,10 6,10 C5.06808029,10 4.28503014,9.36261361 4.06300874,8.5 L2,8.5 L2,7.5 L4.06300874,7.5 Z M6,9 C6.55228475,9 7,8.55228475 7,8 C7,7.44771525 6.55228475,7 6,7 C5.44771525,7 5,7.44771525 5,8 C5,8.55228475 5.44771525,9 6,9 Z M8.56300874,11.5 C8.78503014,10.6373864 9.56808029,10 10.5,10 C11.4319197,10 12.2149699,10.6373864 12.4369913,11.5 L14,11.5 L14,12.5 L12.4369913,12.5 C12.2149699,13.3626136 11.4319197,14 10.5,14 C9.56808029,14 8.78503014,13.3626136 8.56300874,12.5 L2,12.5 L2,11.5 L8.56300874,11.5 Z M10.5,13 C11.0522847,13 11.5,12.5522847 11.5,12 C11.5,11.4477153 11.0522847,11 10.5,11 C9.94771525,11 9.5,11.4477153 9.5,12 C9.5,12.5522847 9.94771525,13 10.5,13 Z" id="Shape"></path>
            </g>
        </g>
    </g>
</svg>