<?xml version="1.0" encoding="UTF-8"?>
<svg width="16px" height="16px" viewBox="0 0 16 16" version="1.1" xmlns="http://www.w3.org/2000/svg" xmlns:xlink="http://www.w3.org/1999/xlink">
    <!-- Generator: Sketch 51.3 (57544) - http://www.bohemiancoding.com/sketch -->
    <title>icon/dark/profile</title>
    <desc>Created with Sketch.</desc>
    <defs></defs>
    <g id="Ericsson-Design-System-v1.4" stroke="none" stroke-width="1" fill-rule="evenodd">
        <g id="Dark-theme" transform="translate(-969.000000, -191.000000)">
            <g id="icon/dark/profile" transform="translate(969.000000, 191.000000)">
                <path d="M11.8315,0.979 C15.7095,3.093 17.1405,7.953 15.0255,11.832 C13.5735,14.495 10.8275,16.004 7.9945,16.004 C6.7005,16.004 5.3885,15.689 4.1715,15.026 C0.2935,12.912 -1.1375,8.052 0.9775,4.172 C2.4295,1.51 5.1755,0.001 8.0085,0 C9.3025,0 10.6145,0.316 11.8315,0.979 Z M14.1475,11.3521 C15.9955,7.9631 14.7415,3.7041 11.3525,1.8561 C10.3255,1.2951 9.1695,0.9991 8.0095,0.9991 C5.4405,1.0001 3.0835,2.3991 1.8555,4.6511 C0.2395,7.6151 0.9965,11.2451 3.4785,13.3441 C3.6775,12.0641 4.7785,11.0781 6.1145,11.0781 L9.8475,11.0781 C11.1895,11.0781 12.2935,12.0741 12.4845,13.3641 C13.1475,12.8101 13.7195,12.1371 14.1475,11.3521 Z M4.6505,14.1471 C5.6775,14.7071 6.8335,15.0031 7.9945,15.0031 C9.2595,15.0031 10.4715,14.6611 11.5245,14.0461 L11.5245,13.7541 C11.5245,12.8301 10.7725,12.0781 9.8475,12.0781 L6.1145,12.0781 C5.1895,12.0781 4.4375,12.8301 4.4375,13.7541 L4.4375,14.0161 C4.5095,14.0591 4.5765,14.1071 4.6505,14.1471 Z M7.9895,3.4467 C9.4655,3.4467 10.6665,4.6477 10.6665,6.1247 L10.6665,7.3687 C10.6665,8.8457 9.4655,10.0467 7.9895,10.0467 C6.5135,10.0467 5.3125,8.8457 5.3125,7.3687 L5.3125,6.1247 C5.3125,4.6477 6.5135,3.4467 7.9895,3.4467 Z M9.6665,7.3687 L9.6665,6.1247 C9.6665,5.1997 8.9145,4.4467 7.9895,4.4467 C7.0645,4.4467 6.3125,5.1997 6.3125,6.1247 L6.3125,7.3687 C6.3125,8.2937 7.0645,9.0467 7.9895,9.0467 C8.9145,9.0467 9.6665,8.2937 9.6665,7.3687 Z" id="Shape"></path>
            </g>
        </g>
    </g>
</svg>