<?xml version="1.0" encoding="UTF-8"?>
<svg width="12px" height="16px" viewBox="0 0 12 16" version="1.1" xmlns="http://www.w3.org/2000/svg" xmlns:xlink="http://www.w3.org/1999/xlink">
    <!-- Generator: Sketch 51.3 (57544) - http://www.bohemiancoding.com/sketch -->
    <title>icon/dark/reload</title>
    <desc>Created with Sketch.</desc>
    <defs></defs>
    <g id="Ericsson-Design-System-v1.4" stroke="none" stroke-width="1" fill-rule="evenodd">
        <g id="Dark-theme" transform="translate(-1229.000000, -127.000000)">
            <g id="icon/dark/reload" transform="translate(1227.000000, 127.000000)">
                <path d="M6.2171,14.8767 L7.3691,13.9597 C4.3561,13.6447 2.0001,11.0897 2.0001,7.99470001 C2.0001,6.39270001 2.6241,4.88570001 3.7571,3.75270001 L4.4641,4.45970001 C3.5201,5.40370001 3.0001,6.65970001 3.0001,7.99470001 C3.0001,10.6207 5.0411,12.7557 7.6171,12.9547 L6.5841,11.6567 L7.3661,11.0337 L9.4151,13.6097 L6.8401,15.6597 L6.2171,14.8767 Z M9.7817,1.11300001 L8.6307,2.02900001 C11.6427,2.34500001 13.9987,4.89900001 13.9987,7.99500001 C13.9987,9.59700001 13.3747,11.104 12.2417,12.237 L11.5347,11.53 C12.4787,10.586 12.9987,9.33000001 12.9987,7.99500001 C12.9987,5.36900001 10.9577,3.23300001 8.3817,3.03400001 L9.4147,4.33200001 L8.6327,4.95500001 L6.5837,2.38000001 L9.1587,0.330000013 L9.7817,1.11300001 Z" id="Shape"></path>
            </g>
        </g>
    </g>
</svg>