<?xml version="1.0" encoding="UTF-8"?>
<svg width="13px" height="11px" viewBox="0 0 13 11" version="1.1" xmlns="http://www.w3.org/2000/svg" xmlns:xlink="http://www.w3.org/1999/xlink">
    <!-- Generator: Sketch 51.3 (57544) - http://www.bohemiancoding.com/sketch -->
    <title>icon/dark/restore</title>
    <desc>Created with Sketch.</desc>
    <defs></defs>
    <g id="Ericsson-Design-System-v1.4" stroke="none" stroke-width="1" fill-rule="evenodd">
        <g id="Dark-theme" transform="translate(-1291.000000, -130.000000)">
            <g id="icon/dark/restore" transform="translate(1289.000000, 127.000000)">
                <path d="M7.933,10.64 L4.967,13.607 L2,10.64 L2.649,9.992 L4.508,11.851 L4.508,7.958 C4.508,5.224 6.733,3 9.467,3 C12.201,3 14.425,5.224 14.425,7.958 C14.425,9.181 13.976,10.356 13.161,11.266 C12.758,11.717 12.28,12.086 11.742,12.366 L11.32,11.551 C11.76,11.324 12.149,11.022 12.478,10.655 C13.142,9.912 13.508,8.955 13.508,7.958 C13.508,5.73 11.695,3.916 9.467,3.916 C7.238,3.916 5.425,5.73 5.425,7.958 L5.425,11.851 L7.285,9.992 L7.933,10.64 Z M9.4663,5.958 C10.5693,5.958 11.4663,6.855 11.4663,7.958 C11.4663,9.061 10.5693,9.958 9.4663,9.958 C8.3633,9.958 7.4663,9.061 7.4663,7.958 C7.4663,6.855 8.3633,5.958 9.4663,5.958 Z M9.4663,8.958 C10.0173,8.958 10.4663,8.51 10.4663,7.958 C10.4663,7.406 10.0173,6.958 9.4663,6.958 C8.9153,6.958 8.4663,7.406 8.4663,7.958 C8.4663,8.51 8.9153,8.958 9.4663,8.958 Z" id="Shape"></path>
            </g>
        </g>
    </g>
</svg>