<?xml version="1.0" encoding="UTF-8"?>
<svg width="13px" height="13px" viewBox="0 0 13 13" version="1.1" xmlns="http://www.w3.org/2000/svg" xmlns:xlink="http://www.w3.org/1999/xlink">
    <!-- Generator: Sketch 51.3 (57544) - http://www.bohemiancoding.com/sketch -->
    <title>icon/dark/rss</title>
    <desc>Created with Sketch.</desc>
    <defs></defs>
    <g id="Ericsson-Design-System-v1.4" stroke="none" stroke-width="1" fill-rule="evenodd">
        <g id="Dark-theme" transform="translate(-907.000000, -257.000000)">
            <g id="icon/dark/rss" transform="translate(905.000000, 255.000000)">
                <path d="M3.5,14.0279 C2.672,14.0279 2,13.3559 2,12.5279 C2,11.6989 2.672,11.0279 3.5,11.0279 C4.329,11.0279 5,11.6989 5,12.5279 C5,13.3559 4.329,14.0279 3.5,14.0279 Z M2,7.9273 L2,6.8673 C2.48,6.7403 2.981,6.6653 3.5,6.6653 C6.732,6.6653 9.361,9.2943 9.361,12.5273 C9.361,13.0463 9.287,13.5483 9.16,14.0283 L8.1,14.0283 C8.256,13.5523 8.361,13.0543 8.361,12.5273 C8.361,9.8463 6.181,7.6653 3.5,7.6653 C2.973,7.6653 2.475,7.7713 2,7.9273 Z M2,3.1295 L2,2.1195 C2.492,2.0485 2.99,1.9995 3.5,1.9995 C9.306,1.9995 14.028,6.7225 14.028,12.5265 C14.028,13.0375 13.979,13.5365 13.909,14.0275 L12.898,14.0275 C12.976,13.5375 13.028,13.0385 13.028,12.5265 C13.028,7.2745 8.754,2.9995 3.5,2.9995 C2.989,2.9995 2.49,3.0515 2,3.1295 Z" id="Shape"></path>
            </g>
        </g>
    </g>
</svg>