<?xml version="1.0" encoding="UTF-8"?>
<svg width="16px" height="16px" viewBox="0 0 16 16" version="1.1" xmlns="http://www.w3.org/2000/svg" xmlns:xlink="http://www.w3.org/1999/xlink">
    <!-- Generator: Sketch 51.3 (57544) - http://www.bohemiancoding.com/sketch -->
    <title>icon/dark/search</title>
    <desc>Created with Sketch.</desc>
    <defs></defs>
    <g id="Ericsson-Design-System-v1.4" stroke="none" stroke-width="1" fill-rule="evenodd">
        <g id="Dark-theme" transform="translate(-1289.000000, -95.000000)">
            <g id="icon/dark/search" transform="translate(1289.000000, 95.000000)">
                <path d="M15.722,15.034 L15.015,15.741 L11.1,11.826 C9.96200001,12.798 8.48800001,13.388 6.87500001,13.388 C3.27700001,13.388 0.360000014,10.472 0.360000014,6.87400001 C0.360000014,3.27600001 3.27700001,0.360000014 6.87400001,0.360000014 C10.472,0.360000014 13.388,3.27600001 13.388,6.87400001 C13.388,8.49800001 12.79,9.97900001 11.808,11.12 L15.722,15.034 Z M2.97500001,2.97500001 C1.93400001,4.01700001 1.36000001,5.40100001 1.36000001,6.87400001 C1.36000001,9.91400001 3.83400001,12.388 6.87500001,12.388 C8.34700001,12.388 9.73200001,11.814 10.774,10.773 C11.815,9.73100001 12.388,8.34700001 12.388,6.87400001 C12.388,3.83400001 9.91500001,1.36000001 6.87400001,1.36000001 C5.40100001,1.36000001 4.01600001,1.93400001 2.97500001,2.97500001 Z" id="Shape"></path>
            </g>
        </g>
    </g>
</svg>