<?xml version="1.0" encoding="UTF-8"?>
<svg width="16px" height="16px" viewBox="0 0 16 16" version="1.1" xmlns="http://www.w3.org/2000/svg" xmlns:xlink="http://www.w3.org/1999/xlink">
    <!-- Generator: Sketch 51.3 (57544) - http://www.bohemiancoding.com/sketch -->
    <title>icon/dark/settings</title>
    <desc>Created with Sketch.</desc>
    <defs></defs>
    <g id="Ericsson-Design-System-v1.4" stroke="none" stroke-width="1" fill-rule="evenodd">
        <g id="Dark-theme" transform="translate(-1001.000000, -191.000000)">
            <g id="icon/dark/settings" transform="translate(1001.000000, 191.000000)">
                <path d="M14.999,8.98 L14.221,8.98 L13.206,8.98 C13.069,9.709 12.791,10.386 12.39,10.977 L13.655,12.243 L12.255,13.642 L10.991,12.378 C10.408,12.777 9.743,13.061 9.025,13.202 C9.016,13.204 9.008,13.208 8.998,13.209 L8.998,14.999 L7.019,14.999 L7.019,14.22 L7.019,13.206 C6.29,13.07 5.612,12.791 5.022,12.389 L5.021,12.389 L3.756,13.655 L2.356,12.255 L3.621,10.991 C3.427,10.708 3.26,10.406 3.124,10.087 C3.123,10.086 3.122,10.086 3.122,10.085 C2.978,9.749 2.87,9.393 2.798,9.025 C2.796,9.015 2.791,9.007 2.79,8.998 L1,8.998 L1,7.018 L1.778,7.018 L2.793,7.018 C2.93,6.29 3.208,5.612 3.609,5.021 L2.345,3.755 L3.744,2.356 L5.008,3.621 C5.591,3.221 6.256,2.938 6.974,2.796 L6.975,2.796 C6.983,2.795 6.992,2.791 7.001,2.79 L7.001,1 L8.98,1 L8.98,1.778 L8.98,2.793 C9.709,2.929 10.387,3.208 10.978,3.609 L12.243,2.344 L13.643,3.744 L12.378,5.007 C12.777,5.59 13.062,6.255 13.202,6.974 C13.204,6.983 13.208,6.992 13.21,7.001 L14.999,7.001 L14.999,8.98 Z M14.999,6.001 L13.965,6.001 C13.869,5.717 13.754,5.444 13.62,5.18 L14.35,4.451 L15.057,3.744 L14.35,3.037 L12.95,1.636 L12.243,0.929 L11.536,1.636 L10.804,2.369 C10.54,2.237 10.265,2.125 9.98,2.03 L9.98,1 L9.98,0 L8.98,0 L7.001,0 L6.001,0 L6.001,1 L6.001,2.035 C5.718,2.129 5.444,2.246 5.181,2.378 L4.451,1.649 L3.744,0.942 L3.037,1.649 L1.638,3.048 L0.931,3.755 L1.638,4.462 L2.369,5.195 C2.237,5.459 2.125,5.734 2.03,6.018 L1,6.018 L0,6.018 L0,7.018 L0,8.998 L0,9.998 L1,9.998 L2.034,9.998 C2.13,10.281 2.246,10.554 2.379,10.819 L1.649,11.547 L0.942,12.255 L1.649,12.962 L3.049,14.362 L3.756,15.069 L4.463,14.362 L5.195,13.63 C5.46,13.761 5.734,13.875 6.019,13.968 L6.019,14.999 L6.019,15.999 L7.019,15.999 L8.998,15.999 L9.998,15.999 L9.998,14.999 L9.998,13.964 C10.282,13.869 10.555,13.753 10.819,13.62 L11.548,14.349 L12.255,15.056 L12.962,14.349 L14.362,12.95 L15.069,12.243 L14.362,11.536 L13.63,10.804 C13.763,10.54 13.874,10.264 13.969,9.98 L14.999,9.98 L15.999,9.98 L15.999,8.98 L15.999,7.001 L15.999,6.001 L14.999,6.001 Z M7.998,5.6109 C9.315,5.6109 10.387,6.6829 10.387,7.9999 C10.387,9.3169 9.315,10.3879 7.998,10.3879 C6.682,10.3879 5.609,9.3169 5.609,7.9999 C5.609,6.6829 6.682,5.6109 7.998,5.6109 Z M7.998,6.6109 C7.231,6.6109 6.609,7.2329 6.609,7.9999 C6.609,8.7659 7.231,9.3879 7.998,9.3879 C8.765,9.3879 9.387,8.7659 9.387,7.9999 C9.387,7.2329 8.765,6.6109 7.998,6.6109 Z" id="Shape"></path>
            </g>
        </g>
    </g>
</svg>