<?xml version="1.0" encoding="UTF-8"?>
<svg width="14px" height="14px" viewBox="0 0 14 14" version="1.1" xmlns="http://www.w3.org/2000/svg" xmlns:xlink="http://www.w3.org/1999/xlink">
    <!-- Generator: Sketch 51.3 (57544) - http://www.bohemiancoding.com/sketch -->
    <title>icon/dark/share</title>
    <desc>Created with Sketch.</desc>
    <defs></defs>
    <g id="Ericsson-Design-System-v1.4" stroke="none" stroke-width="1" fill-rule="evenodd">
        <g id="Dark-theme" transform="translate(-1258.000000, -224.000000)">
            <g id="icon/dark/share" transform="translate(1257.000000, 223.000000)">
                <path d="M14.135,3.99300005 C14.135,5.33000005 13.048,6.41700005 11.711,6.41700005 C10.981,6.41700005 10.333,6.08600005 9.88900002,5.57400005 L6.33600002,7.54200005 C6.40000002,7.76000005 6.44600002,7.98800005 6.44600002,8.22700005 C6.44600002,8.43800005 6.41100002,8.63800005 6.36000002,8.83300005 L9.80700002,10.5100001 C10.251,9.94200005 10.935,9.56900005 11.711,9.56900005 C13.048,9.56900005 14.135,10.6560001 14.135,11.9930001 C14.135,13.3300001 13.048,14.4170001 11.711,14.4170001 C10.374,14.4170001 9.28700002,13.3300001 9.28700002,11.9930001 C9.28700002,11.7900001 9.31900002,11.5960001 9.36700002,11.4080001 L5.91200002,9.72600005 C5.46800002,10.2850001 4.79000002,10.6500001 4.02300002,10.6500001 C2.68700002,10.6500001 1.60000002,9.56300005 1.60000002,8.22700005 C1.60000002,6.89000005 2.68700002,5.80300005 4.02300002,5.80300005 C4.76000002,5.80300005 5.41300002,6.14100005 5.85800002,6.66300005 L9.40400002,4.69900005 C9.33500002,4.47400005 9.28700002,4.24000005 9.28700002,3.99300005 C9.28700002,2.65700005 10.374,1.57000005 11.711,1.57000005 C13.048,1.57000005 14.135,2.65700005 14.135,3.99300005 Z M2.60000002,8.22700005 C2.60000002,9.01100005 3.23800002,9.65000005 4.02300002,9.65000005 C4.80800002,9.65000005 5.44600002,9.01100005 5.44600002,8.22700005 C5.44600002,7.44200005 4.80800002,6.80300005 4.02300002,6.80300005 C3.23800002,6.80300005 2.60000002,7.44200005 2.60000002,8.22700005 Z M13.135,3.99300005 C13.135,3.20900005 12.496,2.57000005 11.711,2.57000005 C10.926,2.57000005 10.287,3.20900005 10.287,3.99300005 C10.287,4.77800005 10.926,5.41700005 11.711,5.41700005 C12.496,5.41700005 13.135,4.77800005 13.135,3.99300005 Z M13.135,11.9930001 C13.135,11.2080001 12.496,10.5690001 11.711,10.5690001 C10.926,10.5690001 10.287,11.2080001 10.287,11.9930001 C10.287,12.7780001 10.926,13.4170001 11.711,13.4170001 C12.496,13.4170001 13.135,12.7780001 13.135,11.9930001 Z" id="Shape"></path>
            </g>
        </g>
    </g>
</svg>