<?xml version="1.0" encoding="UTF-8"?>
<svg width="16px" height="14px" viewBox="0 0 16 14" version="1.1" xmlns="http://www.w3.org/2000/svg" xmlns:xlink="http://www.w3.org/1999/xlink">
    <!-- Generator: Sketch 51.3 (57544) - http://www.bohemiancoding.com/sketch -->
    <title>icon/dark/shopping_cart</title>
    <desc>Created with Sketch.</desc>
    <defs></defs>
    <g id="Ericsson-Design-System-v1.4" stroke="none" stroke-width="1" fill-rule="evenodd">
        <g id="Dark-theme" transform="translate(-969.000000, -256.000000)">
            <g id="icon/dark/shopping_cart" transform="translate(969.000000, 255.000000)">
                <path d="M15.9564,3.0065 L15.1574,9.9445 L3.8994,9.9445 L4.0974,12.0175 L4.8224,12.0175 C5.1664,11.4385 5.7924,11.0455 6.5134,11.0455 C7.2344,11.0455 7.8604,11.4385 8.2044,12.0175 L10.0364,12.0175 C10.3664,11.4625 10.9584,11.0755 11.6514,11.0465 C12.7654,11.0405 13.6594,11.8505 13.7044,12.9365 C13.7484,14.0235 12.9014,14.9445 11.8144,14.9905 C11.7874,14.9915 11.7604,14.9915 11.7334,14.9915 C10.6814,14.9915 9.8054,14.1595 9.7614,13.0995 C9.7604,13.0715 9.7664,13.0455 9.7664,13.0175 L8.4864,13.0175 C8.4864,14.1055 7.6014,14.9915 6.5134,14.9915 C5.4254,14.9915 4.5404,14.1055 4.5404,13.0175 L3.1874,13.0175 L2.1384,2.0025 L0.0004,2.0005 L0.0004,1.0005 L3.0474,1.0025 L3.2384,3.0065 L15.9564,3.0065 Z M14.2654,8.9445 L14.8344,4.0065 L3.3334,4.0065 L3.8044,8.9445 L14.2654,8.9445 Z M7.4864,13.0175 C7.4864,12.4815 7.0504,12.0455 6.5134,12.0455 C5.9764,12.0455 5.5404,12.4815 5.5404,13.0175 C5.5404,13.5545 5.9764,13.9915 6.5134,13.9915 C7.0504,13.9915 7.4864,13.5545 7.4864,13.0175 Z M11.7324,12.0455 C11.7194,12.0455 11.7054,12.0455 11.6924,12.0465 C11.1564,12.0685 10.7384,12.5225 10.7604,13.0585 C10.7834,13.5945 11.2434,14.0435 11.7734,13.9905 C12.3084,13.9675 12.7274,13.5135 12.7054,12.9775 C12.6834,12.4555 12.2514,12.0455 11.7324,12.0455 Z" id="Shape"></path>
            </g>
        </g>
    </g>
</svg>