<?xml version="1.0" encoding="UTF-8"?>
<svg width="16px" height="14px" viewBox="0 0 16 14" version="1.1" xmlns="http://www.w3.org/2000/svg" xmlns:xlink="http://www.w3.org/1999/xlink">
    <!-- Generator: Sketch 51.3 (57544) - http://www.bohemiancoding.com/sketch -->
    <title>icon/dark/show_right_panel</title>
    <desc>Created with Sketch.</desc>
    <defs></defs>
    <g id="Ericsson-Design-System-v1.4" stroke="none" stroke-width="1" fill-rule="evenodd">
        <g id="Dark-theme" transform="translate(-1193.000000, -288.000000)">
            <g id="icon/dark/show_right_panel" transform="translate(1193.000000, 287.000000)">
                <path d="M16,14.9996 L0,14.9996 L0,0.9996 L16,0.9996 L16,14.9996 Z M15,1.9996 L13,1.9996 L13,14 L15,14 L15,12 L14,12 L14,11 L15,11 L15,8.5 L14,8.5 L14,7.5 L15,7.5 L15,5 L14,5 L14,4 L15,4 L15,1.9996 Z M12,14 L12,2 L1,2 L1,14 L12,14 Z M9.5669,10.0260002 L8.8649,10.7370002 L6.1029,8.01000023 L8.8529,5.26000023 L9.5599,5.96700023 L7.5219,8.00600023 L9.5669,10.0260002 Z" id="Shape"></path>
            </g>
        </g>
    </g>
</svg>