<?xml version="1.0" encoding="UTF-8"?>
<svg width="16px" height="14px" viewBox="0 0 16 14" version="1.1" xmlns="http://www.w3.org/2000/svg" xmlns:xlink="http://www.w3.org/1999/xlink">
    <!-- Generator: Sketch 51.3 (57544) - http://www.bohemiancoding.com/sketch -->
    <title>icon/dark/show_left_panel</title>
    <desc>Created with Sketch.</desc>
    <defs></defs>
    <g id="Ericsson-Design-System-v1.4" stroke="none" stroke-width="1" fill-rule="evenodd">
        <g id="Dark-theme" transform="translate(-1129.000000, -288.000000)">
            <g id="icon/dark/show_left_panel" transform="translate(1129.000000, 287.000000)">
                <path d="M0,14.9996 L0,0.9996 L16,0.9996 L16,14.9996 L0,14.9996 Z M1,1.9996 L1,4 L2,4 L2,5 L1,5 L1,7.5 L2,7.5 L2,8.5 L1,8.5 L1,11 L2,11 L2,12 L1,12 L1,14 L3,14 L3,1.9996 L1,1.9996 Z M4,14 L15,14 L15,2 L4,2 L4,14 Z M6.4331,10.0260002 L8.4781,8.00600023 L6.4401,5.96700023 L7.1471,5.26000023 L9.8971,8.01000023 L7.1351,10.7370002 L6.4331,10.0260002 Z" id="Shape"></path>
            </g>
        </g>
    </g>
</svg>