<?xml version="1.0" encoding="UTF-8"?>
<svg width="14px" height="10px" viewBox="0 0 14 10" version="1.1" xmlns="http://www.w3.org/2000/svg" xmlns:xlink="http://www.w3.org/1999/xlink">
    <!-- Generator: Sketch 51.3 (57544) - http://www.bohemiancoding.com/sketch -->
    <title>icon/dark/signal</title>
    <desc>Created with Sketch.</desc>
    <defs></defs>
    <g id="Ericsson-Design-System-v1.4" stroke="none" stroke-width="1" fill-rule="evenodd">
        <g id="Dark-theme" transform="translate(-1162.000000, -226.000000)">
            <g id="icon/dark/signal" transform="translate(1161.000000, 223.000000)">
                <path d="M7,8.00051151 C7,7.44705882 7.44785276,7 8,7 C8.55214724,7 9,7.44705882 9,8.00051151 C9,8.55294118 8.55214724,9 8,9 C7.44785276,9 7,8.55294118 7,8.00051151 Z M4.21000002,4.23599999 C3.17200002,5.27599999 2.60000002,6.65799999 2.60000002,8.12599999 C2.60000002,9.59399999 3.17200002,10.975 4.21000002,12.014 L3.57900002,12.664 L3.51100002,12.728 C2.27600002,11.493 1.60000002,9.86099999 1.60000002,8.12599999 C1.60000002,6.39199999 2.27600002,4.75899999 3.50300002,3.52899999 C3.59700002,3.43599999 3.69200002,3.34599999 3.79000002,3.25999999 L4.45100002,4.00999999 C4.36900002,4.08199999 4.28900002,4.15799999 4.21000002,4.23599999 Z M5.23660002,5.21999979 L5.94960002,5.92099979 C5.40760002,6.47099979 5.10960002,7.19899979 5.10960002,7.97099979 C5.10960002,8.75099979 5.41360002,9.48399979 5.96560002,10.0359998 L5.29260002,10.7759998 L5.22060002,10.7019998 C4.51760002,10.0029998 4.10960002,9.01799979 4.10960002,7.97099979 C4.10960002,6.93499979 4.51060002,5.95799979 5.23660002,5.21999979 Z M10.0459997,5.92099979 L10.7589997,5.21999979 C11.4859997,5.95799979 11.8859997,6.93499979 11.8859997,7.97099979 C11.8859997,9.01799979 11.4779997,10.0029998 10.7749997,10.7019998 L10.7029997,10.7769998 L10.0299997,10.0359998 C10.5819997,9.48499979 10.8859997,8.75099979 10.8859997,7.97099979 C10.8859997,7.19899979 10.5879997,6.47099979 10.0459997,5.92099979 Z M11.5500002,4.00999999 L12.2110002,3.25999999 C12.3090002,3.34599999 12.4040002,3.43599999 12.4980002,3.52999999 C13.7250002,4.75899999 14.4010002,6.39199999 14.4010002,8.12599999 C14.4010002,9.86199999 13.7250002,11.493 12.4900002,12.728 L12.4210002,12.664 L11.7910002,12.014 C12.8290002,10.975 13.4010002,9.59399999 13.4010002,8.12599999 C13.4010002,6.65799999 12.8290002,5.27699999 11.7910002,4.23699999 C11.7120002,4.15799999 11.6320002,4.08199999 11.5500002,4.00999999 Z" id="Shape"></path>
            </g>
        </g>
    </g>
</svg>