<?xml version="1.0" encoding="UTF-8"?>
<svg width="14px" height="16px" viewBox="0 0 14 16" version="1.1" xmlns="http://www.w3.org/2000/svg" xmlns:xlink="http://www.w3.org/1999/xlink">
    <!-- Generator: Sketch 51.3 (57544) - http://www.bohemiancoding.com/sketch -->
    <title>icon/dark/spinner_small</title>
    <desc>Created with Sketch.</desc>
    <defs></defs>
    <g id="Ericsson-Design-System-v1.4" stroke="none" stroke-width="1" fill-rule="evenodd">
        <g id="Dark-theme" transform="translate(-1065.000000, -287.000000)">
            <g id="icon/dark/spinner_small" transform="translate(1065.000000, 287.000000)">
                <path d="M9.89729851,6.12856093 C10.9392694,7.16782362 10.941046,8.85551517 9.90173999,9.89744263 C8.8615457,10.9393701 7.17467211,10.9411466 6.13270122,9.90099566 C5.09073033,8.86173298 5.08895374,7.17492969 6.12825974,6.13300223 C7.16845404,5.09107477 8.85532762,5.08840999 9.89729851,6.12856093 Z M13.8241553,2.56554788 C14.0901553,3.04854788 13.9141553,3.65654788 13.4311553,3.92354788 C12.9481553,4.19054788 12.3391553,4.01454788 12.0731553,3.53054788 C11.8051553,3.04754788 11.9811553,2.43954788 12.4651553,2.17254788 C12.9491553,1.90554788 13.5571553,2.08154788 13.8241553,2.56554788 Z M10.7783553,0.999647879 C10.9113553,1.53564788 10.5843553,2.07764788 10.0483553,2.21064788 C9.51135527,2.34364788 8.96935527,2.01664788 8.83735527,1.48064788 C8.70435527,0.943647879 9.03135527,0.400647879 9.56835527,0.269647879 C10.1043553,0.136647879 10.6463553,0.463647879 10.7783553,0.999647879 Z M5.21935527,1.50404788 C5.07535527,0.970047879 5.39135527,0.422047879 5.92435527,0.278047879 C6.45735527,0.134047879 7.00635527,0.451047879 7.15035527,0.984047879 C7.29335527,1.51704788 6.97835527,2.06604788 6.44435527,2.21004788 C5.91035527,2.35304788 5.36235527,2.03704788 5.21935527,1.50404788 Z M2.34235527,3.76624788 C1.95035527,3.37624788 1.95035527,2.74324788 2.34035527,2.35224788 C2.73135527,1.96124788 3.36335527,1.96024788 3.75435527,2.35124788 C4.14635527,2.74124788 4.14635527,3.37324788 3.75635527,3.76524788 C3.36535527,4.15624788 2.73335527,4.15724788 2.34235527,3.76624788 Z M2.10575527,5.69814788 C2.38275527,6.17514788 2.21975527,6.78814788 1.74075527,7.06414788 C1.26275527,7.34014788 0.650755273,7.17714788 0.374755273,6.70014788 C0.097755273,6.22114788 0.261755273,5.61014788 0.738755273,5.33314788 C1.21775527,5.05614788 1.82875527,5.21914788 2.10575527,5.69814788 Z M2.20945527,9.56174788 C2.35345527,10.0957479 2.03645527,10.6437479 1.50345527,10.7877479 C0.970455273,10.9317479 0.421455273,10.6147479 0.277455273,10.0817479 C0.134455273,9.54874788 0.450455273,8.99974788 0.983455273,8.85574788 C1.51745527,8.71274788 2.06545527,9.02874788 2.20945527,9.56174788 Z M3.76705527,13.6647479 C3.37605527,14.0557479 2.74405527,14.0567479 2.35305527,13.6657479 C1.96105527,13.2757479 1.96105527,12.6437479 2.35105527,12.2517479 C2.74105527,11.8607479 3.37405527,11.8597479 3.76505527,12.2507479 C4.15605527,12.6407479 4.15705527,13.2737479 3.76705527,13.6647479 Z M7.16595527,15.0240479 C7.02295527,15.5580479 6.47495527,15.8750479 5.94095527,15.7330479 C5.40795527,15.5900479 5.08995527,15.0430479 5.23295527,14.5080479 C5.37595527,13.9750479 5.92295527,13.6580479 6.45695527,13.8000479 C6.99095527,13.9430479 7.30695527,14.4910479 7.16595527,15.0240479 Z M10.7875553,14.5022479 C10.9315553,15.0362479 10.6155553,15.5842479 10.0825553,15.7282479 C9.54955527,15.8722479 9.00055527,15.5562479 8.85655527,15.0222479 C8.71355527,14.4892479 9.02855527,13.9402479 9.56255527,13.7972479 C10.0965553,13.6542479 10.6445553,13.9692479 10.7875553,14.5022479 Z M13.6645553,12.2399479 C14.0565553,12.6299479 14.0565553,13.2629479 13.6665553,13.6539479 C13.2755553,14.0449479 12.6435553,14.0459479 12.2525553,13.6559479 C11.8605553,13.2649479 11.8605553,12.6329479 12.2505553,12.2409479 C12.6415553,11.8499479 13.2735553,11.8489479 13.6645553,12.2399479 Z" id="Shape"></path>
            </g>
        </g>
    </g>
</svg>