<?xml version="1.0" encoding="UTF-8"?>
<svg width="12px" height="12px" viewBox="0 0 12 12" version="1.1" xmlns="http://www.w3.org/2000/svg" xmlns:xlink="http://www.w3.org/1999/xlink">
    <!-- Generator: Sketch 51.3 (57544) - http://www.bohemiancoding.com/sketch -->
    <title>icon/dark/tile_view</title>
    <desc>Created with Sketch.</desc>
    <defs></defs>
    <g id="Ericsson-Design-System-v1.4" stroke="none" stroke-width="1" fill-rule="evenodd">
        <g id="Dark-theme" transform="translate(-875.000000, -97.000000)" fill-rule="nonzero">
            <g id="icon/dark/tile_view" transform="translate(873.000000, 95.000000)">
                <path d="M2,2 L7,2 L7,7 L2,7 L2,2 Z M3,6 L6,6 L6,3 L3,3 L3,6 Z M9,2 L14,2 L14,7 L9,7 L9,2 Z M10,6 L13,6 L13,3 L10,3 L10,6 Z M2,9 L7,9 L7,14 L2,14 L2,9 Z M3,13 L6,13 L6,10 L3,10 L3,13 Z M9,9 L14,9 L14,14 L9,14 L9,9 Z" id="Shape"></path>
            </g>
        </g>
    </g>
</svg>