<?xml version="1.0" encoding="UTF-8"?>
<svg width="10px" height="16px" viewBox="0 0 10 16" version="1.1" xmlns="http://www.w3.org/2000/svg" xmlns:xlink="http://www.w3.org/1999/xlink">
    <!-- Generator: Sketch 51.3 (57544) - http://www.bohemiancoding.com/sketch -->
    <title>icon/dark/traffic_lights</title>
    <desc>Created with Sketch.</desc>
    <defs></defs>
    <g id="Ericsson-Design-System-v1.4" stroke="none" stroke-width="1" fill-rule="evenodd">
        <g id="Dark-theme" transform="translate(-1132.000000, -223.000000)">
            <g id="icon/dark/traffic_lights" transform="translate(1129.000000, 223.000000)">
                <path d="M7.99713666,1.33226763e-14 C10.3060179,1.33226763e-14 12.1952869,1.88926897 12.1952869,4.19815026 L12.1952869,11.8018497 C12.1952869,14.1097175 10.3060179,16 7.99713666,16 C5.68926892,16 3.79999995,14.1097175 3.79999995,11.8018497 L3.79999995,4.19815026 C3.79999995,1.88926897 5.68926892,1.33226763e-14 7.99713666,1.33226763e-14 Z M11.1837577,11.8018497 L11.1837577,4.19815026 C11.1837577,2.44165716 9.75464331,1.0115292 7.99713666,1.0115292 C6.24064356,1.0115292 4.81152916,2.44165716 4.81152916,4.19815026 L4.81152916,11.8018497 C4.81152916,13.5583428 6.24064356,14.9884708 7.99713666,14.9884708 C9.75464331,14.9884708 11.1837577,13.5583428 11.1837577,11.8018497 Z M8.00000012,2.32999992 C9.02165687,2.32999992 9.85000014,3.15856749 9.85000014,4.179499 C9.85000014,5.2014324 9.02165687,6.02999997 8.00000012,6.02999997 C6.97734174,6.02999997 6.1500001,5.2014324 6.1500001,4.179499 C6.1500001,3.15856749 6.97734174,2.32999992 8.00000012,2.32999992 Z M7.1500001,4.17799992 C7.1500001,4.64599992 7.5310001,5.02699992 7.9990001,5.02699992 C8.4670001,5.02699992 8.8480001,4.64599992 8.8480001,4.17799992 C8.8480001,3.71099992 8.4670001,3.32999992 7.9990001,3.32999992 C7.5310001,3.32999992 7.1500001,3.71099992 7.1500001,4.17799992 Z M6.1500001,7.88580097 C6.1500001,6.86386757 6.97734174,6.0353 8.00000012,6.0353 C9.02165687,6.0353 9.85000014,6.86386757 9.85000014,7.88580097 C9.85000014,8.90673248 9.02165687,9.73530005 8.00000012,9.73530005 C6.97734174,9.73530005 6.1500001,8.90673248 6.1500001,7.88580097 Z M7.9990001,7.03999996 C7.5310001,7.03999996 7.1500001,7.42099996 7.1500001,7.88899996 C7.1500001,8.35599996 7.5310001,8.73699996 7.9990001,8.73699996 C8.4670001,8.73699996 8.8480001,8.35599996 8.8480001,7.88899996 C8.8480001,7.42099996 8.4670001,7.03999996 7.9990001,7.03999996 Z M6.1500001,11.5899998 C6.1500001,10.5684826 6.97871661,9.73999977 8.00052198,9.73999977 C9.02232735,9.73999977 9.85000014,10.5684826 9.85000014,11.5899998 C9.85000014,12.611517 9.02232735,13.4399998 8.00052198,13.4399998 C6.97871661,13.4399998 6.1500001,12.611517 6.1500001,11.5899998 Z M8.00054886,10.7399998 C7.53082645,10.7399998 7.1500001,11.1216772 7.1500001,11.5899998 C7.1500001,12.0583224 7.53082645,12.4399998 8.00054886,12.4399998 C8.46917379,12.4399998 8.85000014,12.0583224 8.85000014,11.5899998 C8.85000014,11.1216772 8.46917379,10.7399998 8.00054886,10.7399998 Z" id="Shape"></path>
            </g>
        </g>
    </g>
</svg>