<?xml version="1.0" encoding="UTF-8"?>
<svg width="12px" height="16px" viewBox="0 0 12 16" version="1.1" xmlns="http://www.w3.org/2000/svg" xmlns:xlink="http://www.w3.org/1999/xlink">
    <!-- Generator: Sketch 51.3 (57544) - http://www.bohemiancoding.com/sketch -->
    <title>icon/dark/trash_can</title>
    <desc>Created with Sketch.</desc>
    <defs></defs>
    <g id="Ericsson-Design-System-v1.4" stroke="none" stroke-width="1" fill-rule="evenodd">
        <g id="Dark-theme" transform="translate(-1259.000000, -191.000000)">
            <g id="icon/dark/trash_can" transform="translate(1257.000000, 191.000000)">
                <path d="M6.0428,0.5001 L10.0348,0.5001 L10.0348,2.4981 L13.9998,2.4981 L13.9998,3.4961 L13.0268,3.4961 L13.0268,15.4671 L3.0508,15.4671 L3.0508,3.4961 L1.9998,3.4961 L1.9998,2.4981 L6.0428,2.4981 L6.0428,0.5001 Z M7.0428,2.4961 L9.0358,2.4961 L9.0358,1.5001 L7.0428,1.5001 L7.0428,2.4961 Z M4.0508,14.4671 L12.0268,14.4671 L12.0268,3.4991 L4.0508,3.4991 L4.0508,14.4671 Z M7.028,12.4724 L6.028,12.4764 L5.998,5.5004 L6.998,5.4964 L7.028,12.4724 Z M10.0807,12.4724 L9.0807,12.4764 L9.0507,5.5004 L10.0507,5.4964 L10.0807,12.4724 Z" id="Shape"></path>
            </g>
        </g>
    </g>
</svg>