<?xml version="1.0" encoding="UTF-8"?>
<svg width="15px" height="12px" viewBox="0 0 15 12" version="1.1" xmlns="http://www.w3.org/2000/svg" xmlns:xlink="http://www.w3.org/1999/xlink">
    <!-- Generator: Sketch 51.3 (57544) - http://www.bohemiancoding.com/sketch -->
    <title>icon/dark/volume_mute</title>
    <desc>Created with Sketch.</desc>
    <defs></defs>
    <g id="Ericsson-Design-System-v1.4" stroke="none" stroke-width="1" fill-rule="evenodd">
        <g id="Dark-theme" transform="translate(-1034.000000, -289.000000)">
            <g id="icon/dark/volume_mute" transform="translate(1033.000000, 287.000000)">
                <path d="M1.0001,4.9991 L4.0001,4.9991 L8.0001,2.0001 L8.0001,14.0001 L4.0001,10.9991 L1.0001,10.9991 L1.0001,4.9991 Z M7.0001,3.9991 L4.3331,5.9991 L2.0001,5.9991 L2.0001,9.9991 L4.3331,9.9991 L7.0001,11.9991 L7.0001,3.9991 Z M10.0099,6.1529 L10.7179,5.4479 L12.5539,7.2909 L14.3879,5.4569 L15.0939,6.1649 L13.2599,7.9989 L15.0999,9.8469 L14.3919,10.5509 L12.5529,8.7049 L10.7079,10.5499 L10.0009,9.8429 L11.8479,7.9969 L10.0099,6.1529 Z" id="Shape"></path>
            </g>
        </g>
    </g>
</svg>