<?xml version="1.0" encoding="UTF-8"?>
<svg width="14px" height="11px" viewBox="0 0 14 11" version="1.1" xmlns="http://www.w3.org/2000/svg" xmlns:xlink="http://www.w3.org/1999/xlink">
    <!-- Generator: Sketch 51.3 (57544) - http://www.bohemiancoding.com/sketch -->
    <title>icon/dark/wifi</title>
    <desc>Created with Sketch.</desc>
    <defs></defs>
    <g id="Ericsson-Design-System-v1.4" stroke="none" stroke-width="1" fill-rule="evenodd">
        <g id="Dark-theme" transform="translate(-1194.000000, -226.000000)">
            <g id="icon/dark/wifi" transform="translate(1193.000000, 223.000000)">
                <path d="M7.01999998,12.4995 C7.01999998,11.9585 7.45799998,11.5215 7.99799998,11.5215 C8.53799998,11.5215 8.97499998,11.9585 8.97499998,12.4995 C8.97499998,13.0395 8.53799998,13.4765 7.99799998,13.4765 C7.45799998,13.4765 7.01999998,13.0395 7.01999998,12.4995 Z M3.71350001,8.1283 L3.39950001,7.7353 C4.63150001,6.5023 6.26350001,5.8263 8.00050001,5.8263 C9.73750001,5.8263 11.3695,6.5023 12.6015,7.7353 L12.2875,8.1283 L11.8895,8.4363 C10.8515,7.3983 9.47050001,6.8263 8.00050001,6.8263 C6.53050001,6.8263 5.14950001,7.3983 4.11150001,8.4363 L3.71350001,8.1283 Z M5.31950001,9.704 C6.02150001,9.002 6.97950001,8.603 8.00050001,8.585 C9.02150001,8.603 9.97950001,9.002 10.6815,9.704 L10.7395,9.761 L9.99850001,10.434 C9.46250001,9.898 8.73450001,9.628 8.00050001,9.611 C7.26650001,9.628 6.53850001,9.898 6.00250001,10.434 L5.26150001,9.761 L5.31950001,9.704 Z M1.65600001,5.621 C3.34300001,3.935 5.59900001,3 8.00100001,3 C10.402,3 12.658,3.935 14.345,5.621 L14.391,5.668 L13.647,6.338 C12.14,4.83 10.134,4 8.00000001,4 C5.86700001,4 3.86100001,4.83 2.35400001,6.338 L1.61000001,5.668 L1.65600001,5.621 Z" id="Shape"></path>
            </g>
        </g>
    </g>
</svg>