<?xml version="1.0" encoding="UTF-8"?>
<svg width="16px" height="16px" viewBox="0 0 16 16" version="1.1" xmlns="http://www.w3.org/2000/svg" xmlns:xlink="http://www.w3.org/1999/xlink">
    <!-- Generator: Sketch 51.3 (57544) - http://www.bohemiancoding.com/sketch -->
    <title>icon/dark/zoom_in</title>
    <desc>Created with Sketch.</desc>
    <defs></defs>
    <g id="Ericsson-Design-System-v1.4" stroke="none" stroke-width="1" fill-rule="evenodd">
        <g id="Dark-theme" transform="translate(-1289.000000, -287.000000)">
            <g id="icon/dark/zoom_in" transform="translate(1289.000000, 287.000000)">
                <path d="M15.7219,15.0341 L15.0149,15.7411 L11.0999,11.8261 C9.96190001,12.7981 8.48790001,13.3881 6.87490001,13.3881 C3.27690001,13.3881 0.359900014,10.4721 0.359900014,6.87410001 C0.359900014,3.27610001 3.27690001,0.360100014 6.87390001,0.360100014 C10.4719,0.360100014 13.3879,3.27610001 13.3879,6.87410001 C13.3879,8.49810001 12.7899,9.97910001 11.8079,11.1201 L15.7219,15.0341 Z M1.35990001,6.87410001 C1.35990001,9.91410001 3.83390001,12.3881 6.87490001,12.3881 C8.34690001,12.3881 9.73190001,11.8141 10.7739,10.7731 C11.8149,9.73110001 12.3879,8.34710001 12.3879,6.87410001 C12.3879,3.83410001 9.91490001,1.36010001 6.87390001,1.36010001 C5.40090001,1.36010001 4.01590001,1.93410001 2.97490001,2.97510001 C1.93390001,4.01710001 1.35990001,5.40110001 1.35990001,6.87410001 Z M7.37410001,3.35940001 L7.37410001,6.37440001 L10.3691,6.37440001 L10.3691,7.37440001 L7.37410001,7.37440001 L7.37410001,10.3594 L6.37410001,10.3594 L6.37410001,7.37440001 L3.36910001,7.37440001 L3.36910001,6.37440001 L6.37410001,6.37440001 L6.37410001,3.35940001 L7.37410001,3.35940001 Z" id="Shape"></path>
            </g>
        </g>
    </g>
</svg>